<svg width="66" height="28" viewBox="0 0 66 28" fill="none" xmlns="http://www.w3.org/2000/svg">
<path d="M16.5 14.6979L19.5 18.6979L26.5 22.6979H22.5L12 27.6979L1.5 23.6979L0 11.1979L10.5 6.69792L13 2.69792L16.5 14.6979Z" fill="#D9D9D9"/>
<path d="M58.1396 0.114395C59.611 -0.0546454 61.0091 -0.0441661 64 0.19838L62.5 4.69838L62.9072 5.18568C64.8511 7.57124 65.4576 9.19629 65.5 12.1984C62.36 11.6354 60.4205 11.752 57.1689 12.5333L56.5 12.6984C50.9251 14.2329 48 15.6984 42.5 17.6984C42.0823 17.8503 41.7421 17.943 41.4707 17.9874C36.0792 19.4394 31.8616 19.4621 27 19.1984L26.5 22.6984L19.5 18.6984L16.5 14.6984L14 6.19838L14.5 4.69838C16.2648 6.18738 17.2534 6.68739 18.5146 6.87416C22.3476 7.15407 25.9475 7.08181 30 6.69838L31.4189 6.5099C34.5242 6.06535 36.2915 5.5772 39 4.69838L40.251 4.28432C43.0263 3.34772 44.9911 2.57913 48.5049 1.70815L48.5 1.69838C52.2663 0.780801 54.2397 0.449051 57.5 0.19838L58.1396 0.114395Z" fill="#D9D9D9"/>
<path d="M9 15.1979C9 16.5786 7.88071 17.6979 6.5 17.6979C5.11929 17.6979 4 16.5786 4 15.1979C4 13.8172 5.11929 12.6979 6.5 12.6979C7.88071 12.6979 9 13.8172 9 15.1979Z" fill="#F5F5F5"/>
<path d="M41.0374 7.45461C41.0325 7.49823 41.0116 7.53886 40.9749 7.57651C40.9377 7.61226 40.8917 7.64523 40.837 7.67541C40.7841 7.70511 40.7265 7.73199 40.6641 7.75606C40.6012 7.77823 40.5414 7.7966 40.4846 7.81116C40.3863 7.8364 40.3052 7.83098 40.2415 7.79489C40.1778 7.75881 40.1288 7.67361 40.0943 7.53928C40.0807 7.48631 40.0757 7.43518 40.0791 7.3859C40.0845 7.33612 40.0909 7.29013 40.0982 7.24793C40.1074 7.20524 40.1159 7.16776 40.1238 7.1355C40.1335 7.10276 40.1357 7.07598 40.1304 7.05517C40.1487 7.03232 40.1761 7.00917 40.2124 6.98574C40.2501 6.95993 40.2886 6.93695 40.3278 6.91681C40.3665 6.89479 40.4022 6.87656 40.4348 6.86215C40.4674 6.84774 40.4893 6.83908 40.5007 6.83617C40.5972 6.81142 40.681 6.80806 40.7522 6.82609C40.8233 6.84413 40.8645 6.87491 40.8757 6.91842C40.881 6.93923 40.8849 6.96242 40.8875 6.98798C40.8895 7.01166 40.8927 7.03201 40.8971 7.04903C40.9135 7.09725 40.937 7.14969 40.9677 7.20634C40.9978 7.26111 41.0192 7.31309 41.0319 7.36227C41.0406 7.39633 41.0425 7.42711 41.0374 7.45461ZM41.9992 10.5198C41.9899 10.5464 41.965 10.579 41.9245 10.6176C41.8854 10.6538 41.8394 10.6908 41.7866 10.7286C41.7333 10.7644 41.678 10.7967 41.6209 10.8255C41.5656 10.8538 41.5182 10.873 41.4784 10.8832C41.4027 10.8946 41.3359 10.8936 41.278 10.8802C41.2202 10.8668 41.1693 10.8415 41.1255 10.8044C41.0817 10.7672 41.0445 10.7203 41.0138 10.6637C40.9831 10.607 40.9552 10.5416 40.9302 10.4674C40.9205 10.4295 40.9164 10.3902 40.9181 10.3495C40.9211 10.3064 40.9166 10.2611 40.9044 10.2139C40.8909 10.1609 40.8735 10.1089 40.8523 10.0578C40.8307 10.0049 40.8131 9.95198 40.7995 9.89901C40.7883 9.85549 40.7749 9.79944 40.7594 9.73085C40.7457 9.66177 40.7315 9.58677 40.7168 9.50586C40.7021 9.42495 40.6878 9.3419 40.674 9.25671C40.6621 9.17105 40.6514 9.09011 40.642 9.0139C40.6325 8.93769 40.6262 8.86975 40.623 8.81008C40.6193 8.74852 40.6206 8.7028 40.6271 8.67292C40.6423 8.59845 40.6706 8.53977 40.712 8.49688C40.7534 8.454 40.8034 8.42503 40.8621 8.40998C40.9378 8.39057 41.005 8.38945 41.0639 8.40661C41.1227 8.42378 41.1746 8.45685 41.2194 8.50585C41.2661 8.55435 41.3065 8.61758 41.3406 8.69553C41.3743 8.77159 41.4037 8.85881 41.4289 8.95719C41.4401 9.0007 41.4491 9.04375 41.456 9.08634C41.4629 9.12894 41.4715 9.1701 41.4816 9.20983C41.502 9.28928 41.5297 9.36586 41.5648 9.43954C41.6017 9.51274 41.6388 9.58285 41.6762 9.64989C41.7155 9.71644 41.7521 9.78064 41.7861 9.84249C41.8201 9.90434 41.8442 9.96269 41.8582 10.0176C41.8626 10.0346 41.8668 10.0547 41.8707 10.0779C41.8741 10.0992 41.878 10.1183 41.8824 10.1354C41.9004 10.2054 41.9218 10.2614 41.9467 10.3034C41.9711 10.3435 41.9879 10.3815 41.9971 10.4175C42.0059 10.4515 42.0065 10.4856 41.9992 10.5198Z" fill="black"/>
<path d="M40.5897 10.343C40.5881 10.3837 40.5743 10.4205 40.5485 10.4534C40.524 10.4838 40.4908 10.5115 40.4488 10.5364C40.4087 10.5608 40.3629 10.5826 40.3114 10.6019C40.2613 10.6188 40.2107 10.6338 40.1596 10.6469L40.0943 10.6636C40.0886 10.6651 40.0728 10.6702 40.0468 10.6789C40.0208 10.6875 39.9946 10.6953 39.9681 10.7021C39.917 10.7152 39.8767 10.7154 39.8473 10.7028C39.8178 10.6902 39.7938 10.6712 39.7752 10.6457C39.756 10.6184 39.7393 10.5884 39.7249 10.5558C39.7123 10.5227 39.6965 10.4925 39.6774 10.4651C39.6712 10.4566 39.6586 10.4427 39.6395 10.4234C39.6223 10.4036 39.603 10.3834 39.5816 10.3627C39.5596 10.3401 39.5398 10.3179 39.5222 10.2962C39.504 10.2727 39.4928 10.2524 39.4884 10.2353C39.4831 10.2145 39.4827 10.1894 39.4872 10.16C39.4913 10.1287 39.4951 10.0965 39.4987 10.0633C39.5042 10.0297 39.5087 9.99624 39.5123 9.96305C39.5159 9.92987 39.5145 9.90098 39.5082 9.87639C39.501 9.84801 39.4889 9.81279 39.4721 9.77074C39.4552 9.72868 39.4434 9.69441 39.4366 9.66792C39.4201 9.6036 39.4069 9.54044 39.3971 9.47844C39.3867 9.41456 39.3752 9.35802 39.3626 9.30883C39.3476 9.25018 39.325 9.20556 39.295 9.17495C39.2664 9.14197 39.2199 9.13372 39.1556 9.15023C39.0818 9.16915 39.0233 9.20433 38.98 9.25576C38.9386 9.3067 38.9082 9.36089 38.8886 9.41833C38.8686 9.47388 38.8566 9.52535 38.8526 9.57274C38.8506 9.61965 38.851 9.64878 38.8539 9.66014C38.8646 9.70176 38.8809 9.74595 38.903 9.79271C38.9251 9.83947 38.9498 9.88859 38.9771 9.94005C39.0044 9.99152 39.0325 10.0458 39.0613 10.103C39.0895 10.1582 39.1145 10.2163 39.1362 10.2773C39.1729 10.3808 39.2079 10.4898 39.2413 10.6042C39.2761 10.7163 39.3051 10.8177 39.3284 10.9085C39.3454 10.9747 39.3503 11.041 39.3431 11.1074C39.3355 11.1719 39.306 11.2298 39.2547 11.2813C39.2358 11.3023 39.2097 11.3181 39.1761 11.3287C39.142 11.3374 39.1115 11.3483 39.0846 11.3612C39.0686 11.3694 39.045 11.3835 39.0138 11.4036C38.9822 11.4218 38.9468 11.441 38.9076 11.4611C38.8684 11.4812 38.8271 11.5009 38.7836 11.5201C38.7401 11.5393 38.6985 11.554 38.6588 11.5642C38.6153 11.5754 38.5812 11.5801 38.5566 11.5784C38.5319 11.5766 38.5111 11.5699 38.4939 11.5581C38.4768 11.5464 38.4599 11.5316 38.4432 11.5137C38.4279 11.4934 38.4072 11.4715 38.381 11.448C38.3576 11.4278 38.3353 11.4113 38.3139 11.3987C38.292 11.3841 38.2716 11.3712 38.2525 11.36C38.2349 11.3463 38.219 11.3313 38.2047 11.3148C38.1917 11.2959 38.1814 11.2713 38.1736 11.2411C38.1625 11.1976 38.1584 11.1542 38.1615 11.1111C38.1645 11.068 38.16 11.0228 38.1479 10.9755C38.1367 10.932 38.1232 10.887 38.1072 10.8407C38.0908 10.7925 38.0735 10.7445 38.0552 10.6968C38.0369 10.6491 38.0198 10.602 38.0039 10.5557C37.988 10.5094 37.9747 10.4654 37.964 10.4238C37.9601 10.4086 37.9557 10.3876 37.9508 10.3606C37.9454 10.3318 37.9381 10.2994 37.9289 10.2634C37.9085 10.184 37.8866 10.1261 37.8632 10.0897C37.8397 10.0534 37.8006 10.0423 37.7457 10.0563C37.7211 10.0626 37.6956 10.0732 37.6692 10.0881C37.6427 10.1029 37.6168 10.1197 37.5913 10.1383C37.5673 10.1545 37.5444 10.1715 37.5227 10.1892C37.5024 10.2044 37.4864 10.2166 37.4746 10.2257C37.4477 10.2467 37.4192 10.2691 37.389 10.293C37.3589 10.3169 37.3325 10.3438 37.31 10.3738C37.2869 10.4019 37.2703 10.4354 37.2601 10.4743C37.2513 10.5108 37.2533 10.5537 37.2659 10.6029C37.2722 10.6275 37.2828 10.653 37.2976 10.6794C37.3125 10.7059 37.3285 10.733 37.3457 10.7608C37.3648 10.7882 37.3821 10.816 37.3974 10.8444C37.4127 10.8727 37.424 10.901 37.4313 10.9294C37.4347 10.9427 37.4369 10.9552 37.4379 10.967C37.439 10.9789 37.4409 10.9905 37.4438 11.0018C37.4521 11.034 37.4658 11.0637 37.4849 11.0911C37.5035 11.1166 37.5229 11.1408 37.5429 11.1639C37.5648 11.1865 37.5846 11.2087 37.6023 11.2304C37.6195 11.2502 37.6305 11.2695 37.6353 11.2884C37.6611 11.3887 37.6822 11.479 37.6988 11.5595C37.7168 11.6375 37.7225 11.7067 37.7157 11.7669C37.7104 11.8247 37.6906 11.8731 37.6562 11.9122C37.6219 11.9512 37.5659 11.9807 37.4884 12.0006C37.4694 12.0055 37.4391 12.0092 37.3975 12.0118C37.3563 12.0163 37.3115 12.0188 37.2632 12.019C37.2173 12.0208 37.1735 12.0189 37.1317 12.0135C37.0919 12.0075 37.0632 11.9978 37.0456 11.9841C37.037 11.9743 37.0255 11.957 37.0111 11.9325C36.9982 11.9056 36.9833 11.8751 36.9665 11.8411C36.9516 11.8066 36.9372 11.77 36.9232 11.7312C36.9092 11.6925 36.8974 11.6542 36.8877 11.6163C36.8765 11.5728 36.8742 11.5361 36.8806 11.5062C36.8885 11.474 36.8885 11.4427 36.8808 11.4124C36.8749 11.3897 36.8662 11.3637 36.8547 11.3344C36.8446 11.3028 36.8332 11.2704 36.8207 11.2373C36.8101 11.2037 36.7994 11.1702 36.7888 11.1366C36.7782 11.103 36.769 11.0711 36.7612 11.0408C36.7564 11.0219 36.7522 10.9897 36.7486 10.9443C36.745 10.8988 36.7406 10.8465 36.7355 10.7873C36.7304 10.7281 36.7236 10.6664 36.7152 10.602C36.7063 10.5357 36.694 10.4723 36.6785 10.4118C36.6484 10.2945 36.6157 10.1829 36.5805 10.077C36.5453 9.97111 36.5143 9.86613 36.4876 9.76208C36.474 9.70911 36.4602 9.65519 36.4461 9.60033C36.4339 9.54498 36.4286 9.4929 36.4302 9.4441C36.4337 9.39481 36.4479 9.35186 36.4728 9.31523C36.4996 9.27811 36.5442 9.25155 36.6066 9.23553C36.6539 9.2234 36.697 9.2184 36.7358 9.22053C36.7761 9.22028 36.8124 9.23213 36.8448 9.25609C36.879 9.27957 36.9086 9.31634 36.9336 9.3664C36.9599 9.41408 36.984 9.48049 37.0058 9.56562C37.0185 9.61481 37.027 9.66402 37.0316 9.71326C37.0357 9.76061 37.0455 9.81455 37.061 9.87509C37.1376 9.84335 37.2065 9.80953 37.2679 9.77363C37.3288 9.73583 37.3873 9.69663 37.4434 9.65602C37.499 9.61351 37.5556 9.57077 37.6131 9.52778C37.6702 9.4829 37.7327 9.43965 37.8006 9.39802C37.8459 9.37026 37.8894 9.34299 37.9309 9.31621C37.9743 9.28894 38.0178 9.26973 38.0613 9.25856C38.1029 9.24789 38.1417 9.24599 38.1778 9.25287C38.2152 9.25738 38.2494 9.26475 38.2802 9.27498C38.3125 9.28284 38.341 9.29166 38.3657 9.30146C38.3918 9.30888 38.4162 9.30967 38.4389 9.30385C38.4635 9.29754 38.4818 9.28274 38.494 9.25946C38.5081 9.23568 38.5193 9.20861 38.5276 9.17825C38.5355 9.14598 38.5438 9.11159 38.5526 9.07506C38.5609 9.03664 38.573 9.00127 38.5889 8.96896C38.6062 8.93427 38.6285 8.90335 38.6558 8.87618C38.685 8.84852 38.7242 8.82839 38.7734 8.81577C38.8055 8.80752 38.8389 8.79997 38.8734 8.79312C38.9099 8.78579 38.9442 8.778 38.9763 8.76975C39.0293 8.75616 39.0858 8.73663 39.1458 8.71116C39.2077 8.68519 39.2674 8.65877 39.3251 8.63189C39.3822 8.60312 39.4342 8.57769 39.4809 8.55561C39.5296 8.53305 39.5653 8.51886 39.588 8.51303C39.6107 8.50721 39.6407 8.50655 39.6782 8.51106C39.7156 8.51556 39.7574 8.53307 39.8036 8.56358C39.8511 8.59171 39.9016 8.63522 39.955 8.6941C40.0098 8.75061 40.0655 8.83009 40.122 8.93254C40.18 9.03261 40.2371 9.15708 40.2935 9.30595C40.3517 9.45434 40.4077 9.63353 40.4616 9.84353C40.4674 9.86623 40.4702 9.88871 40.4698 9.91098C40.4709 9.93087 40.471 9.951 40.4702 9.97138C40.4694 9.99175 40.4686 10.0121 40.4677 10.0325C40.4688 10.0524 40.4725 10.0706 40.4787 10.0871C40.488 10.1231 40.5055 10.164 40.5314 10.2098C40.5591 10.2551 40.5771 10.2938 40.5854 10.326L40.5897 10.343Z" fill="black"/>
<path d="M36.4532 11.1017C36.4839 11.1584 36.5081 11.2056 36.5259 11.2434C36.5436 11.2812 36.5564 11.3152 36.5641 11.3455C36.5709 11.372 36.573 11.3956 36.5703 11.4165C36.5694 11.4369 36.5629 11.4587 36.5508 11.482C36.54 11.5029 36.5238 11.5262 36.5022 11.5519C36.4805 11.5776 36.453 11.6079 36.4196 11.6427C36.3862 11.6774 36.3589 11.7086 36.3377 11.7362C36.318 11.7615 36.2987 11.7846 36.2799 11.8055C36.2606 11.8246 36.2396 11.8411 36.217 11.8549C36.1943 11.8688 36.165 11.8804 36.1291 11.8896C36.0534 11.909 35.984 11.9016 35.9207 11.8674C35.8575 11.8332 35.8143 11.7707 35.791 11.6799C35.7842 11.6534 35.7771 11.622 35.7698 11.5855C35.7625 11.5491 35.7539 11.512 35.7442 11.4741C35.7316 11.425 35.7174 11.3812 35.7015 11.343C35.6851 11.3028 35.6666 11.2854 35.6458 11.2907C35.6325 11.2941 35.6096 11.307 35.5771 11.3295C35.5459 11.3496 35.5103 11.3759 35.4703 11.4083C35.4316 11.4384 35.3906 11.4711 35.3472 11.5064C35.3034 11.5399 35.2624 11.5726 35.2242 11.6045C35.1874 11.6341 35.1558 11.6604 35.1295 11.6833C35.1026 11.7043 35.0866 11.7165 35.0814 11.7198C35.0672 11.7275 35.0528 11.7342 35.0381 11.74C35.0235 11.7457 35.0058 11.7513 34.985 11.7566C34.9585 11.7634 34.9298 11.7698 34.8991 11.7756C34.8683 11.7815 34.8369 11.7886 34.8047 11.7968C34.7385 11.8138 34.6761 11.8379 34.6176 11.869C34.5604 11.8978 34.5047 11.9282 34.4504 11.9603C34.3976 11.99 34.3447 12.0197 34.2918 12.0494C34.2403 12.0767 34.1881 12.0972 34.1352 12.1108C34.0614 12.1297 33.9938 12.1258 33.9326 12.0992C33.8727 12.0702 33.8175 12.0279 33.7669 11.9723C33.7159 11.9148 33.6695 11.8481 33.6279 11.7721C33.5876 11.6937 33.552 11.6141 33.5212 11.5333C33.4899 11.4506 33.4627 11.3719 33.4395 11.2972C33.4182 11.222 33.4005 11.157 33.3864 11.1021C33.3777 11.068 33.3725 11.0321 33.3708 10.9942C33.3711 10.9558 33.3715 10.9184 33.3723 10.8819C33.3749 10.8449 33.3761 10.8103 33.3759 10.7781C33.3771 10.7435 33.3741 10.7121 33.3668 10.6837C33.3556 10.6402 33.3423 10.5962 33.3269 10.5518C33.3115 10.5073 33.2977 10.4615 33.2855 10.4142C33.2676 10.3442 33.2605 10.2653 33.2642 10.1777C33.2693 10.0876 33.2745 9.99761 33.2796 9.90757C33.2835 9.84407 33.2855 9.78911 33.2857 9.74268C33.2854 9.69437 33.2908 9.65265 33.302 9.61752C33.315 9.58192 33.3366 9.55218 33.3668 9.52831C33.3984 9.50206 33.4463 9.48068 33.5106 9.46418C33.5258 9.4603 33.552 9.45658 33.5894 9.45304C33.6268 9.44949 33.6695 9.44662 33.7173 9.44444C33.767 9.44176 33.8182 9.44074 33.8708 9.44136C33.9248 9.43961 33.9754 9.44072 34.0228 9.44469C34.0721 9.44818 34.115 9.45431 34.1516 9.46308C34.1876 9.46997 34.2123 9.47976 34.2256 9.49247C34.2423 9.51037 34.2557 9.53113 34.2658 9.55475C34.2759 9.57838 34.2844 9.60343 34.2912 9.62992C34.3013 9.66965 34.308 9.71129 34.3111 9.75486C34.3161 9.79793 34.3197 9.83936 34.3218 9.87914C34.324 9.91892 34.3254 9.95586 34.3261 9.98996C34.3286 10.0236 34.3326 10.0508 34.3379 10.0716C34.3433 10.0924 34.3519 10.1144 34.3639 10.1375C34.3759 10.1607 34.3853 10.1855 34.3921 10.212C34.3956 10.2413 34.3953 10.2716 34.3912 10.3029C34.389 10.3337 34.389 10.361 34.391 10.3846C34.4017 10.4263 34.4178 10.4735 34.4395 10.5265C34.463 10.5789 34.4818 10.6325 34.4959 10.6874C34.5032 10.7158 34.5071 10.743 34.5078 10.769C34.5098 10.7927 34.5109 10.8166 34.5111 10.8408C34.5107 10.8631 34.5099 10.8834 34.5086 10.9019C34.5092 10.9199 34.5121 10.9353 34.5174 10.9481C34.5295 10.9873 34.5396 11.019 34.5478 11.0431C34.5579 11.0667 34.5685 11.0842 34.5794 11.0955C34.5923 11.1063 34.6058 11.1119 34.62 11.1123C34.6342 11.1127 34.6527 11.1099 34.6754 11.1041C34.7549 11.0837 34.8338 11.0615 34.9123 11.0373C34.9908 11.0131 35.0648 10.9871 35.1342 10.9592C35.2056 10.9308 35.2698 10.9022 35.327 10.8734C35.3855 10.8423 35.4337 10.8098 35.4713 10.7759C35.484 10.7545 35.4878 10.7223 35.4828 10.6792C35.4797 10.6356 35.4723 10.5912 35.4607 10.5458C35.4505 10.498 35.4383 10.4547 35.4244 10.4159C35.4118 10.3748 35.4036 10.3467 35.3997 10.3315C35.3502 10.1386 35.3018 9.97757 35.2546 9.84853C35.2074 9.7195 35.1753 9.62188 35.1583 9.55566C35.1539 9.53864 35.1528 9.51472 35.155 9.48392C35.1572 9.45311 35.1634 9.42228 35.1736 9.39143C35.1858 9.36009 35.2036 9.33132 35.2271 9.30512C35.2501 9.27703 35.2815 9.25789 35.3213 9.2477C35.361 9.2375 35.4005 9.23442 35.4399 9.23844C35.4787 9.24057 35.5141 9.24864 35.5459 9.26266C35.5791 9.2743 35.6076 9.29117 35.6315 9.31329C35.6548 9.33352 35.6701 9.35782 35.6774 9.3862C35.6832 9.4089 35.6881 9.43587 35.6921 9.46711C35.6961 9.49835 35.7017 9.52816 35.709 9.55654C35.7221 9.60762 35.7414 9.66316 35.7669 9.72317C35.7919 9.78128 35.8178 9.83915 35.8447 9.89678C35.8734 9.95392 35.8998 10.0097 35.9239 10.064C35.9479 10.1183 35.9652 10.1663 35.9759 10.2079C35.9871 10.2514 35.994 10.294 35.9966 10.3357C35.9987 10.3755 36.0047 10.4143 36.0144 10.4521C36.026 10.4975 36.044 10.5362 36.0684 10.5683C36.0927 10.6004 36.1185 10.6301 36.1457 10.6574C36.1742 10.6823 36.2023 10.7053 36.2299 10.7265C36.2575 10.7476 36.2804 10.77 36.2986 10.7936C36.3234 10.8275 36.3474 10.8738 36.3705 10.9324C36.3955 10.9905 36.423 11.0469 36.4532 11.1017Z" fill="black"/>
<path d="M33.0136 11.0163C33.017 11.0456 33.0218 11.0878 33.0278 11.1427C33.0339 11.1976 33.0399 11.2525 33.0459 11.3074C33.0519 11.3623 33.0574 11.4113 33.0624 11.4544C33.0669 11.4956 33.0687 11.5183 33.0678 11.5226C33.0637 11.5458 33.0523 11.5719 33.0335 11.6009C33.0147 11.63 33.0019 11.6625 32.995 11.6985C32.9932 11.7151 32.9962 11.7345 33.0039 11.7567C33.0116 11.779 33.0134 11.8017 33.0093 11.8249C33.0094 11.841 33.004 11.8555 32.9932 11.8684C32.9824 11.8812 32.977 11.8957 32.9771 11.9118C32.971 11.9981 32.9685 12.0945 32.9697 12.2011C32.9708 12.3076 32.9726 12.413 32.9752 12.5172C32.9772 12.6195 32.9769 12.7164 32.9741 12.8079C32.9733 12.8988 32.9678 12.9718 32.9577 13.0268C32.9531 13.0482 32.9452 13.0683 32.9339 13.0874C32.9231 13.1083 32.9105 13.1297 32.8959 13.1515C32.8833 13.1729 32.8706 13.1943 32.858 13.2157C32.8458 13.239 32.8379 13.2632 32.8342 13.2883C32.8315 13.3012 32.8314 13.3203 32.8339 13.3459C32.8364 13.3715 32.8356 13.3959 32.8315 13.4191C32.8278 13.4362 32.8234 13.4504 32.8183 13.4618C32.8136 13.4751 32.8087 13.4875 32.8036 13.4989C32.8003 13.5098 32.798 13.5205 32.7967 13.5309C32.7953 13.5413 32.7966 13.5541 32.8004 13.5692C32.8034 13.5806 32.807 13.5907 32.8113 13.5997C32.8156 13.6087 32.8192 13.6189 32.8221 13.6302C32.8299 13.6605 32.824 13.6963 32.8043 13.7376C32.7847 13.7789 32.7553 13.8218 32.7163 13.8661C32.6791 13.9099 32.6342 13.9547 32.5814 14.0005C32.5286 14.0463 32.473 14.0888 32.4145 14.128C32.3579 14.1667 32.3001 14.2007 32.241 14.2299C32.1839 14.2587 32.1307 14.2794 32.0815 14.292C32.0077 14.311 31.917 14.311 31.8094 14.2923C31.7017 14.2735 31.5926 14.2451 31.482 14.2069C31.3738 14.1701 31.2717 14.1298 31.1757 14.0859C31.0821 14.0433 31.0104 14.0073 30.9605 13.9777C30.9533 13.9735 30.9409 13.9565 30.9232 13.9268C30.9079 13.8985 30.8843 13.8733 30.8524 13.8512C30.8257 13.8339 30.8003 13.8212 30.7761 13.8133C30.7524 13.8073 30.7343 13.7998 30.722 13.7909C30.6705 13.7396 30.6377 13.6865 30.6236 13.6316C30.6125 13.5881 30.6088 13.5346 30.6127 13.4711C30.6142 13.4062 30.6228 13.3375 30.6384 13.2649C30.6536 13.1904 30.674 13.1166 30.6996 13.0435C30.7271 12.9699 30.7591 12.9022 30.7957 12.8404C30.8318 12.7767 30.8724 12.723 30.9177 12.6791C30.9624 12.6333 31.0112 12.6037 31.0642 12.5901C31.1096 12.5784 31.1548 12.5779 31.1999 12.5885C31.2469 12.5987 31.292 12.6214 31.3353 12.6566C31.3492 12.6712 31.3621 12.6941 31.3741 12.7253C31.3857 12.7546 31.4036 12.7813 31.4279 12.8053C31.4498 12.8279 31.4786 12.8457 31.5142 12.8588C31.5498 12.8718 31.5798 12.8903 31.6041 12.9143C31.645 12.9482 31.6768 12.9854 31.6993 13.026C31.7218 13.0666 31.7469 13.0975 31.7745 13.1186C31.7944 13.1337 31.8189 13.1506 31.848 13.1693C31.8765 13.1862 31.9057 13.2019 31.9356 13.2164C31.9651 13.229 31.9938 13.2388 32.0218 13.2457C32.0498 13.2527 32.0733 13.2537 32.0922 13.2489C32.1177 13.2383 32.1365 13.2173 32.1486 13.186C32.1603 13.1527 32.1693 13.1172 32.1757 13.0792C32.184 13.0408 32.1894 13.0031 32.192 12.9661C32.1961 12.9268 32.2011 12.8953 32.2071 12.8715C32.2108 12.8545 32.2177 12.8305 32.228 12.7997C32.2396 12.7664 32.251 12.7322 32.2622 12.6971C32.2728 12.6601 32.2809 12.6248 32.2864 12.5911C32.2914 12.5555 32.291 12.5264 32.2851 12.5037C32.2788 12.4791 32.2583 12.4622 32.2237 12.4529C32.1886 12.4418 32.1464 12.4344 32.0971 12.431C32.0492 12.4251 31.999 12.4219 31.9464 12.4212C31.8933 12.4187 31.8452 12.4119 31.802 12.4008C31.6711 12.3699 31.5631 12.33 31.478 12.2813C31.3929 12.2325 31.3184 12.178 31.2546 12.1178C31.1902 12.0557 31.1297 11.9885 31.0728 11.9164C31.0155 11.8424 30.9492 11.7646 30.8739 11.6831C30.8519 11.6605 30.8274 11.6396 30.8003 11.6204C30.7732 11.6011 30.747 11.5776 30.7217 11.5498C30.6945 11.5225 30.6697 11.4966 30.6473 11.4721C30.6268 11.4471 30.6063 11.4221 30.5858 11.3971C30.5671 11.3717 30.5461 11.3448 30.5227 11.3165C30.5007 11.2859 30.4743 11.2533 30.4433 11.219C30.4237 11.1978 30.4006 11.1744 30.3739 11.149C30.3491 11.1231 30.3241 11.0963 30.2988 11.0685C30.273 11.0388 30.2494 11.0096 30.2279 10.9808C30.2078 10.9497 30.1939 10.919 30.1861 10.8887C30.1706 10.8282 30.1798 10.7774 30.2136 10.7365C30.2475 10.6955 30.289 10.6687 30.3382 10.6561C30.4044 10.6391 30.4641 10.6399 30.5173 10.6586C30.5699 10.6753 30.6206 10.7036 30.6691 10.7436C30.7191 10.7812 30.7691 10.8268 30.8192 10.8805C30.8712 10.9338 30.9293 10.9874 30.9936 11.0415C31.024 11.0659 31.0552 11.0852 31.087 11.0992C31.1188 11.1132 31.1521 11.1248 31.1867 11.1341C31.2227 11.141 31.2597 11.1476 31.2977 11.154C31.3356 11.1604 31.374 11.1687 31.4129 11.1789C31.4315 11.1882 31.4498 11.2007 31.4679 11.2162C31.486 11.2317 31.505 11.243 31.5249 11.25C31.5487 11.256 31.5747 11.2594 31.6032 11.2601C31.6316 11.2609 31.6527 11.2646 31.6665 11.2711C31.7021 11.2922 31.7397 11.3209 31.7793 11.3571C31.8207 11.3929 31.8626 11.4305 31.905 11.47C31.9474 11.5096 31.9901 11.55 32.033 11.5915C32.0772 11.6305 32.1203 11.6648 32.1622 11.6944C32.2041 11.724 32.2433 11.7472 32.2799 11.764C32.3179 11.7785 32.352 11.7818 32.3823 11.7741C32.3874 11.7707 32.3892 11.7541 32.3876 11.7243C32.3879 11.694 32.3856 11.6573 32.3806 11.6142C32.377 11.5687 32.3705 11.52 32.3612 11.4679C32.3533 11.4135 32.3449 11.3612 32.3361 11.3111C32.3291 11.2604 32.3213 11.214 32.3125 11.1719C32.3037 11.1298 32.2966 11.0984 32.2913 11.0776C32.2859 11.0567 32.2761 11.03 32.2617 10.9974C32.2468 10.963 32.2309 10.9287 32.2141 10.8947C32.1973 10.8607 32.1822 10.8293 32.1688 10.8005C32.1549 10.7698 32.1464 10.7487 32.1435 10.7374C32.1449 10.727 32.1441 10.7161 32.1412 10.7047C32.1378 10.6915 32.1342 10.6773 32.1303 10.6622C32.1225 10.6319 32.1133 10.6 32.1027 10.5664C32.0916 10.5309 32.0833 10.5028 32.078 10.482C32.0668 10.4385 32.0704 10.4013 32.0887 10.3704C32.1084 10.3371 32.135 10.3071 32.1684 10.2803C32.2038 10.2531 32.2425 10.2271 32.2845 10.2022C32.326 10.1754 32.364 10.1465 32.3983 10.1155C32.4115 10.1041 32.4292 10.0904 32.4514 10.0747C32.4731 10.057 32.495 10.0403 32.5172 10.0245C32.5412 10.0083 32.5646 9.99321 32.5872 9.97933C32.6099 9.96546 32.6297 9.95633 32.6468 9.95197C32.6619 9.94808 32.6802 9.9565 32.7016 9.97721C32.7226 9.99603 32.7445 10.0227 32.7675 10.0571C32.7904 10.0915 32.8134 10.13 32.8364 10.1725C32.8594 10.215 32.8805 10.258 32.8997 10.3014C32.9208 10.3444 32.9381 10.3843 32.9516 10.4212C32.967 10.4576 32.9776 10.4871 32.9834 10.5098C32.9917 10.542 32.9967 10.581 32.9984 10.627C33.002 10.6724 33.0039 10.7193 33.0042 10.7676C33.0064 10.8155 33.0072 10.8616 33.0065 10.9062C33.0077 10.9502 33.0101 10.9869 33.0136 11.0163Z" fill="black"/>
<path d="M30.1361 11.8845C30.1511 11.9271 30.1653 11.9708 30.1788 12.0157C30.1919 12.0587 30.2045 12.1039 30.2166 12.1512C30.2511 12.2855 30.2794 12.4234 30.3016 12.5649C30.3233 12.7045 30.3421 12.8409 30.3581 12.9739C30.3631 13.0169 30.3665 13.0615 30.3682 13.1074C30.3713 13.151 30.377 13.1888 30.3852 13.221C30.4032 13.291 30.4273 13.3574 30.4575 13.4202C30.4872 13.4811 30.5092 13.539 30.5232 13.5939C30.5261 13.6052 30.5251 13.6327 30.5202 13.6763C30.5152 13.7199 30.5011 13.7669 30.4777 13.8173C30.4562 13.8672 30.4231 13.915 30.3784 13.9607C30.3361 14.0079 30.278 14.0409 30.2042 14.0598C30.1191 14.0817 30.0551 14.0719 30.0122 14.0305C29.9712 13.9886 29.941 13.9298 29.9216 13.8541C29.908 13.8011 29.8981 13.7432 29.8921 13.6802C29.8855 13.6153 29.8797 13.5493 29.8745 13.4821C29.8334 13.5027 29.7945 13.5318 29.7578 13.5695C29.723 13.6066 29.6896 13.6414 29.6575 13.6738C29.5869 13.7444 29.517 13.8177 29.4479 13.894C29.3806 13.9697 29.3045 14.0426 29.2197 14.1128C29.1348 14.183 29.0386 14.248 28.931 14.3078C28.8252 14.3672 28.6986 14.4159 28.551 14.4537C28.5472 14.4547 28.5321 14.4586 28.5056 14.4654C28.4815 14.4736 28.4522 14.4811 28.4176 14.4879C28.3831 14.4948 28.3459 14.4993 28.3062 14.5014C28.2683 14.5031 28.2329 14.499 28.2002 14.4893C28.1479 14.4583 28.0939 14.4167 28.0381 14.3645C27.9848 14.3137 27.9354 14.2628 27.8901 14.2119C27.8462 14.1587 27.8099 14.1115 27.7812 14.0705C27.7526 14.0294 27.737 14.0042 27.7346 13.9947C27.7284 13.9862 27.7243 13.9782 27.7224 13.9707C27.7199 13.9612 27.7175 13.9517 27.7151 13.9423C27.7049 13.9025 27.6973 13.8611 27.6923 13.8181C27.6868 13.7731 27.683 13.7307 27.6808 13.6909C27.6782 13.6493 27.6763 13.6145 27.6752 13.5865C27.6736 13.5567 27.6716 13.537 27.6692 13.5276C27.657 13.4803 27.6416 13.4359 27.6229 13.3943C27.6037 13.3508 27.5873 13.3026 27.5737 13.2496C27.5674 13.225 27.5618 13.1993 27.5569 13.1723C27.5534 13.1429 27.5525 13.1119 27.5542 13.0792C27.5537 13.0773 27.5552 13.0638 27.5589 13.0387C27.5625 13.0136 27.5666 12.9863 27.5712 12.9569C27.5776 12.927 27.5834 12.8983 27.5884 12.8708C27.5953 12.8428 27.6012 12.8262 27.6059 12.821C27.6162 12.8062 27.6317 12.7921 27.6525 12.7787C27.6733 12.7654 27.6969 12.7512 27.7233 12.7364C27.7497 12.7215 27.7762 12.7067 27.8026 12.6918C27.8309 12.6765 27.8576 12.6586 27.8826 12.6381C27.9207 12.6061 27.9527 12.5697 27.9785 12.5288C28.0062 12.4874 28.0328 12.4574 28.0583 12.4387C28.0748 12.4244 28.0984 12.4103 28.1291 12.3964C28.1617 12.382 28.194 12.3626 28.2261 12.3382C28.2487 12.3243 28.2763 12.3062 28.3089 12.2837C28.3409 12.2594 28.3754 12.2364 28.4122 12.2149C28.4504 12.1909 28.4891 12.1689 28.5283 12.1488C28.567 12.1267 28.6048 12.109 28.6417 12.0955C28.6587 12.0911 28.6802 12.0886 28.7063 12.088C28.7342 12.0869 28.7662 12.0817 28.8021 12.0725C28.8286 12.0657 28.8593 12.0518 28.8942 12.0307C28.9292 12.0096 28.9731 11.9923 29.0261 11.9787C29.0791 11.9651 29.1311 11.9558 29.1822 11.9508C29.2334 11.9457 29.2722 11.9398 29.2987 11.933C29.3195 11.9277 29.3303 11.9188 29.3312 11.9065C29.3335 11.8918 29.3324 11.8759 29.328 11.8589C29.3208 11.8305 29.3066 11.7989 29.2855 11.764C29.2645 11.729 29.2418 11.6955 29.2174 11.6635C29.1931 11.6314 29.1709 11.6038 29.1508 11.5808C29.1308 11.5577 29.117 11.5431 29.1093 11.537C29.0717 11.5083 29.0325 11.4891 28.9917 11.4794C28.9528 11.4692 28.9192 11.4678 28.8908 11.4751C28.8605 11.4828 28.8313 11.4944 28.8029 11.5097C28.7765 11.5246 28.7453 11.5366 28.7093 11.5458C28.6829 11.5526 28.6549 11.5578 28.6256 11.5613C28.5981 11.5643 28.5712 11.5692 28.5447 11.576C28.4804 11.5925 28.4098 11.6277 28.3329 11.6817C28.2579 11.7352 28.1832 11.7937 28.1087 11.8572C28.0361 11.9202 27.9669 11.9803 27.9009 12.0375C27.8363 12.0924 27.7828 12.1313 27.7403 12.1543C27.7172 12.1663 27.6931 12.1785 27.6681 12.191C27.6426 12.2016 27.6175 12.21 27.5929 12.2163C27.5778 12.2202 27.5541 12.2182 27.5218 12.2104C27.491 12.2002 27.4591 12.1861 27.4263 12.1683C27.3935 12.1505 27.3629 12.1292 27.3343 12.1042C27.3071 12.0769 27.2896 12.0481 27.2819 12.0179C27.2702 11.9725 27.2731 11.9324 27.2904 11.8977C27.3072 11.8612 27.3309 11.8279 27.3615 11.7978C27.3921 11.7678 27.4263 11.7399 27.464 11.7141C27.5032 11.6859 27.5371 11.657 27.5658 11.6275C27.6026 11.5898 27.6456 11.5455 27.6951 11.4945C27.7445 11.4435 27.7859 11.3966 27.8192 11.3537C27.8535 11.3066 27.8765 11.2665 27.8881 11.2332C27.8993 11.1981 27.9162 11.1696 27.9388 11.1477C27.9614 11.1257 27.9994 11.1009 28.0527 11.0731C28.1061 11.0453 28.1554 11.0175 28.2007 10.9897C28.2144 10.9802 28.233 10.9663 28.2566 10.9482C28.2821 10.9295 28.3078 10.9119 28.3337 10.8951C28.3616 10.8779 28.3878 10.8621 28.4123 10.8477C28.4387 10.8329 28.4595 10.8235 28.4747 10.8196L28.486 10.8167C28.5254 10.8207 28.5687 10.8207 28.616 10.8166C28.6629 10.8107 28.7117 10.8042 28.7623 10.7973C28.8148 10.7898 28.8667 10.7836 28.9178 10.7785C28.9703 10.7711 29.0208 10.7672 29.0691 10.767C29.0852 10.7669 29.1016 10.7717 29.1182 10.7816C29.1344 10.7895 29.1507 10.7944 29.1673 10.7962C29.2427 10.799 29.3069 10.8058 29.36 10.8163C29.4126 10.825 29.463 10.8484 29.5111 10.8865C29.5587 10.9226 29.6088 10.9804 29.6614 11.0596C29.7154 11.1365 29.7802 11.2439 29.8559 11.3817C29.8722 11.4138 29.8944 11.4414 29.9225 11.4645C29.9506 11.4875 29.973 11.512 29.9897 11.5379C30.017 11.5814 30.0432 11.6361 30.0682 11.7023C30.0947 11.7661 30.1173 11.8268 30.1361 11.8845ZM29.6494 12.8169C29.6565 12.805 29.6568 12.7828 29.6504 12.7501C29.6455 12.7151 29.6377 12.6768 29.627 12.6352C29.6144 12.586 29.6032 12.5465 29.5936 12.5167C29.5834 12.485 29.5733 12.4614 29.5633 12.4458C29.5533 12.4303 29.5428 12.4208 29.5319 12.4176C29.5205 12.4125 29.5072 12.4118 29.4921 12.4157C29.4807 12.4186 29.4705 12.4222 29.4616 12.4266C29.4545 12.4304 29.4474 12.4342 29.4403 12.4381C29.4337 12.4438 29.4269 12.4486 29.4198 12.4524C29.3886 12.4564 29.3597 12.4618 29.3332 12.4686C29.3086 12.4749 29.2831 12.4814 29.2566 12.4882C29.2036 12.5018 29.1552 12.5173 29.1112 12.5346C29.0692 12.5514 29.0276 12.5702 28.9865 12.5908C28.9473 12.6109 28.9084 12.632 28.8696 12.654C28.8309 12.6761 28.7891 12.6979 28.7443 12.7195C28.6805 12.754 28.621 12.7813 28.5657 12.8016C28.5104 12.8218 28.4641 12.8458 28.4269 12.8735C28.3896 12.9012 28.3645 12.9369 28.3515 12.9805C28.338 13.0223 28.3412 13.082 28.3611 13.1595C28.3815 13.239 28.4162 13.2876 28.4651 13.3053C28.5135 13.3211 28.5774 13.3188 28.6569 13.2984C28.6815 13.2921 28.7089 13.281 28.7391 13.2652C28.7688 13.2475 28.8002 13.2284 28.8333 13.2078C28.8682 13.1867 28.9031 13.1657 28.938 13.1446C28.9744 13.1212 29.0112 13.0996 29.0485 13.08C29.0754 13.067 29.1042 13.0536 29.1349 13.0397C29.167 13.0233 29.1984 13.0082 29.2292 12.9943C29.2617 12.9799 29.2915 12.9662 29.3184 12.9533C29.3472 12.9398 29.3716 12.9285 29.3914 12.9194C29.4042 12.9141 29.4245 12.9069 29.4524 12.8977C29.4798 12.8867 29.5074 12.8765 29.5353 12.8674C29.5627 12.8563 29.5876 12.8469 29.6098 12.8392C29.6334 12.8291 29.6466 12.8217 29.6494 12.8169Z" fill="black"/>
<path d="M27.2403 12.9994C27.2675 13.1054 27.2886 13.2189 27.3035 13.3401C27.3185 13.4613 27.3251 13.5775 27.3234 13.6889C27.3236 13.7997 27.3129 13.8993 27.2911 13.9875C27.2708 14.0734 27.2385 14.1361 27.1942 14.1757C27.1763 14.1924 27.1492 14.2125 27.1129 14.2359C27.078 14.2569 27.0371 14.2785 26.9904 14.3006C26.9455 14.3222 26.8983 14.3424 26.8486 14.3611C26.799 14.3799 26.7505 14.3954 26.7032 14.4075C26.673 14.4153 26.6346 14.4191 26.5882 14.4189C26.5418 14.4187 26.4958 14.4123 26.4502 14.3998C26.4042 14.3854 26.3626 14.3648 26.3255 14.3381C26.2898 14.3089 26.2661 14.2716 26.2545 14.2262C26.2448 14.1884 26.2339 14.1499 26.2218 14.1106C26.2097 14.0714 26.1988 14.0328 26.1891 13.995C26.1576 13.872 26.1269 13.7448 26.0972 13.6133C26.067 13.4799 26.0342 13.3441 25.9988 13.206C25.9658 13.0774 25.9288 12.9487 25.8877 12.8202C25.8485 12.6911 25.803 12.5606 25.751 12.4288C25.7148 12.4683 25.6845 12.5154 25.6602 12.57C25.6378 12.6242 25.6173 12.6818 25.5987 12.7431C25.5816 12.8019 25.5658 12.8624 25.5515 12.9245C25.5372 12.9867 25.5201 13.0455 25.5 13.1011C25.4828 13.1519 25.4582 13.1975 25.4263 13.238C25.3943 13.2784 25.3718 13.3205 25.3588 13.3641C25.3458 13.4078 25.3421 13.4481 25.3475 13.485C25.3529 13.5219 25.3517 13.5565 25.3439 13.5888C25.3355 13.6191 25.3137 13.6479 25.2783 13.6752C25.2425 13.7005 25.178 13.7241 25.0848 13.746C25.0261 13.761 24.9771 13.7625 24.9377 13.7504C24.9002 13.7379 24.8646 13.7168 24.8307 13.6871C24.7964 13.6556 24.7619 13.6191 24.727 13.5776C24.6922 13.5362 24.6498 13.4926 24.5997 13.447C24.5717 13.4239 24.5426 13.4052 24.5127 13.3907C24.4847 13.3757 24.4587 13.3571 24.4349 13.335C24.403 13.3049 24.3689 13.2703 24.3327 13.2312C24.2964 13.1921 24.2609 13.1518 24.2261 13.1103C24.1912 13.0689 24.1564 13.0274 24.1215 12.9859C24.0886 12.944 24.0576 12.9055 24.0285 12.8707C24.0507 12.9416 24.0725 13.0146 24.0938 13.0898C24.1151 13.165 24.1364 13.2442 24.1578 13.3275L24.2407 13.651C24.2587 13.721 24.2767 13.791 24.2946 13.861C24.3145 13.9305 24.3348 13.9979 24.3555 14.0631C24.3676 14.1024 24.3828 14.1418 24.401 14.1815C24.4193 14.2212 24.4378 14.2618 24.4565 14.3034C24.4771 14.3445 24.4968 14.3858 24.5155 14.4274C24.5343 14.4689 24.5487 14.5096 24.5589 14.5493C24.5691 14.589 24.5728 14.6193 24.5701 14.6402C24.5693 14.6606 24.5642 14.68 24.5549 14.6986C24.545 14.7152 24.5316 14.7338 24.5147 14.7542C24.4997 14.7742 24.4818 14.803 24.4612 14.8405C24.4406 14.8781 24.4224 14.917 24.4065 14.9574C24.3926 14.9973 24.375 15.0351 24.3539 15.0707C24.3328 15.1064 24.3077 15.138 24.2785 15.1657C24.2493 15.1933 24.211 15.2132 24.1637 15.2254C24.1032 15.2409 24.0395 15.2482 23.9727 15.2471C23.9059 15.2461 23.8422 15.2373 23.7814 15.2206C23.7202 15.202 23.6667 15.1744 23.621 15.1377C23.5772 15.1006 23.548 15.0536 23.5335 14.9969C23.515 14.925 23.501 14.8348 23.4913 14.7264C23.4835 14.6175 23.4644 14.5035 23.4338 14.3843C23.4221 14.3389 23.4153 14.3003 23.4132 14.2686C23.4106 14.235 23.4097 14.2039 23.4105 14.1755C23.4127 14.1447 23.4151 14.1148 23.4177 14.0859C23.4199 14.0551 23.419 14.0201 23.415 13.9808C23.4099 13.9216 23.4007 13.8584 23.3875 13.7912C23.3762 13.7236 23.3635 13.6542 23.3493 13.5833C23.3346 13.5104 23.3188 13.4368 23.3017 13.3626C23.2866 13.2878 23.2717 13.214 23.257 13.1412C23.2502 13.1066 23.2455 13.0725 23.2429 13.0389C23.2422 13.0048 23.2403 12.97 23.2373 12.9345C23.2361 12.8985 23.2328 12.8621 23.2274 12.8251C23.2238 12.7877 23.2165 12.7473 23.2053 12.7038C23.1951 12.664 23.1819 12.6281 23.1656 12.596C23.1512 12.5634 23.1356 12.5301 23.1188 12.4961C23.102 12.4621 23.0847 12.4262 23.0669 12.3884C23.0506 12.3482 23.0356 12.3017 23.022 12.2487C23.0133 12.2147 23.0086 12.1766 23.0078 12.1344C23.0085 12.0899 23.0108 12.0439 23.0148 11.9965C23.0183 11.9472 23.0225 11.8967 23.0274 11.8451C23.0323 11.7934 23.036 11.741 23.0385 11.688C23.0397 11.6614 23.0382 11.6356 23.0337 11.6105C23.0293 11.5855 23.0244 11.5625 23.0191 11.5417C23.0133 11.519 23.0094 11.4998 23.0074 11.4842C23.0054 11.4686 23.0072 11.456 23.0128 11.4465C23.0147 11.438 23.0248 11.4263 23.0432 11.4115C23.0616 11.3967 23.0809 11.3817 23.1012 11.3664C23.1228 11.3487 23.1434 11.3344 23.1627 11.3234C23.1835 11.31 23.1974 11.3014 23.2045 11.2976C23.231 11.2908 23.2568 11.2932 23.282 11.3049C23.3086 11.3142 23.3417 11.3178 23.3815 11.3157C23.4393 11.3129 23.4952 11.3067 23.5491 11.2969C23.6049 11.2866 23.6563 11.2784 23.7031 11.2725C23.7519 11.266 23.7966 11.2636 23.8374 11.2652C23.88 11.2664 23.9173 11.278 23.9492 11.3001C23.9829 11.3217 24.017 11.3523 24.0513 11.3918C24.0852 11.4295 24.1189 11.4703 24.1523 11.5141C24.1876 11.5575 24.2222 11.6021 24.2561 11.6478C24.2919 11.6931 24.3265 11.7336 24.3599 11.7694C24.3904 11.8019 24.424 11.8306 24.4606 11.8554C24.4968 11.8784 24.5265 11.9041 24.5499 11.9324C24.5666 11.9502 24.5796 11.9731 24.5887 12.001C24.5974 12.027 24.611 12.0487 24.6296 12.0662C24.6387 12.0779 24.6652 12.1064 24.709 12.1516C24.7529 12.1969 24.8006 12.2451 24.852 12.2964C24.9049 12.3454 24.9526 12.3896 24.995 12.4291C25.0393 12.4682 25.0661 12.4865 25.0756 12.4841C25.0983 12.4782 25.115 12.4568 25.1256 12.4198C25.1382 12.3823 25.1479 12.3375 25.1547 12.2853C25.1615 12.2332 25.1685 12.178 25.1757 12.1196C25.1824 12.0594 25.1925 12.0044 25.2059 11.9546C25.2236 11.8977 25.2457 11.8426 25.2724 11.7893C25.2986 11.7342 25.3179 11.6759 25.3303 11.6142C25.3381 11.5739 25.3433 11.5232 25.3457 11.462C25.3501 11.4004 25.3547 11.3357 25.3595 11.268C25.3638 11.1983 25.37 11.1282 25.3781 11.0575C25.388 10.9864 25.4026 10.9212 25.4216 10.8619C25.4402 10.8006 25.4652 10.7488 25.4967 10.7065C25.5282 10.6641 25.5694 10.6364 25.6205 10.6233C25.6451 10.617 25.6669 10.6154 25.6859 10.6186C25.7044 10.6199 25.7236 10.6241 25.7435 10.6311C25.7653 10.6376 25.7893 10.6445 25.8154 10.6519C25.8415 10.6594 25.873 10.6644 25.91 10.667C25.9446 10.6682 25.9787 10.6675 26.0123 10.6649C26.0478 10.6619 26.0814 10.6593 26.1132 10.6572C26.1449 10.6551 26.1743 10.6557 26.2013 10.6588C26.2297 10.6596 26.2558 10.667 26.2796 10.6811C26.3038 10.697 26.3258 10.7196 26.3454 10.7489C26.365 10.7781 26.3825 10.8109 26.3978 10.8473C26.4151 10.8832 26.4303 10.9227 26.4433 10.9657C26.4583 11.0083 26.4723 11.051 26.4853 11.0941C26.5018 11.1584 26.516 11.2213 26.5277 11.2828C26.539 11.3424 26.5514 11.3987 26.565 11.4517C26.5762 11.4952 26.5887 11.5323 26.6026 11.563C26.6184 11.5932 26.6345 11.6244 26.6508 11.6565C26.6685 11.6863 26.6865 11.721 26.7047 11.7606C26.723 11.8003 26.7399 11.8504 26.7554 11.911C26.7704 11.9696 26.7843 12.0316 26.797 12.0969C26.8093 12.1603 26.8229 12.2213 26.838 12.28C26.8564 12.3519 26.8759 12.4083 26.8966 12.4494C26.9186 12.4881 26.9408 12.5197 26.9632 12.5442C26.9856 12.5687 27.0085 12.5911 27.0319 12.6113C27.0552 12.6315 27.0781 12.6579 27.1006 12.6905C27.1101 12.7042 27.1214 12.7245 27.1343 12.7514C27.1473 12.7783 27.1607 12.8071 27.1747 12.8378C27.1881 12.8666 27.2006 12.8957 27.2121 12.925C27.2237 12.9543 27.2331 12.9791 27.2403 12.9994Z" fill="black"/>
<path d="M57.9131 5.14015C57.9108 5.15925 57.9045 5.17856 57.8942 5.19809C57.8838 5.21761 57.8716 5.23771 57.8575 5.25838C57.8453 5.27848 57.8315 5.30009 57.8161 5.3232C57.8021 5.34387 57.7891 5.36828 57.7773 5.39642C57.7571 5.44351 57.7436 5.49262 57.7368 5.54374C57.7319 5.59428 57.7213 5.63635 57.7051 5.66994C57.7056 5.67181 57.6989 5.68308 57.6848 5.70375C57.672 5.72199 57.6567 5.74201 57.6389 5.76383C57.623 5.78508 57.6086 5.80482 57.5958 5.82305C57.583 5.84128 57.5782 5.84889 57.5814 5.84587C57.5674 5.86037 57.5502 5.87078 57.5297 5.87709C57.5116 5.88469 57.4904 5.89222 57.4661 5.89968C57.4213 5.91345 57.3719 5.92556 57.3179 5.93602C57.2639 5.94648 57.2108 5.95975 57.1585 5.97581C57.1062 5.99187 57.0565 6.01633 57.0094 6.0492C56.9623 6.08206 56.9117 6.10682 56.8575 6.12345C56.8109 6.13779 56.7654 6.15278 56.7212 6.16842C56.6769 6.18405 56.6315 6.19904 56.5848 6.21338C56.4765 6.24665 56.3737 6.2711 56.2763 6.28671C56.1808 6.30175 56.0888 6.30143 56.0002 6.28574C55.9122 6.27192 55.827 6.24087 55.7448 6.19259C55.6644 6.14374 55.5873 6.07241 55.5135 5.97861C55.4973 5.95908 55.4833 5.93681 55.4715 5.91182C55.4611 5.88439 55.4503 5.85603 55.4393 5.82673C55.4301 5.79686 55.42 5.76727 55.4089 5.73798C55.3992 5.70624 55.3881 5.67694 55.3758 5.65008C55.3379 5.57999 55.3032 5.52017 55.2716 5.47062C55.2419 5.42049 55.2199 5.37209 55.2055 5.32542C55.1901 5.27501 55.1891 5.22525 55.2026 5.17615C55.2161 5.12704 55.241 5.0816 55.2772 5.03983C55.3147 4.99562 55.361 4.95686 55.4161 4.92357C55.4726 4.88784 55.5354 4.85936 55.6044 4.83813C55.6418 4.82666 55.6729 4.81813 55.6977 4.81254C55.7244 4.80637 55.7513 4.80423 55.7785 4.80611C55.8069 4.80554 55.8383 4.81123 55.8726 4.82316C55.9082 4.83265 55.9539 4.84825 56.0096 4.86995C56.0321 4.88346 56.059 4.8946 56.0903 4.90337C56.1229 4.9097 56.1456 4.91703 56.1584 4.92537C56.1766 4.93815 56.192 4.95489 56.2045 4.97557C56.2188 4.99568 56.2335 5.01672 56.2484 5.0387C56.2633 5.06068 56.2795 5.08021 56.297 5.09731C56.3146 5.1144 56.3356 5.12633 56.3601 5.13309C56.3851 5.14789 56.4102 5.15651 56.4355 5.15896C56.4608 5.16141 56.4845 5.16537 56.5066 5.17084C56.53 5.17386 56.5508 5.18177 56.5691 5.19456C56.5873 5.20734 56.6016 5.23054 56.6119 5.26415C56.617 5.28095 56.621 5.2971 56.6237 5.31261C56.6264 5.32812 56.6301 5.34335 56.6347 5.35828C56.6439 5.38815 56.6594 5.412 56.6812 5.42981C56.703 5.44763 56.7286 5.46121 56.7581 5.47055C56.7869 5.47803 56.8165 5.4812 56.8468 5.48006C56.8771 5.47893 56.9053 5.47434 56.9315 5.46631C56.9651 5.45598 56.9969 5.44006 57.0271 5.41853C57.0591 5.39643 57.0866 5.36959 57.1096 5.338C57.132 5.30455 57.1474 5.26816 57.1558 5.22882C57.1635 5.18761 57.1605 5.1446 57.1468 5.09979C57.1359 5.06432 57.1161 5.02647 57.0874 4.98626C57.0605 4.94546 57.0388 4.898 57.0222 4.84385C57.0141 4.81772 57.0067 4.79036 57 4.76178C56.9927 4.73133 56.9853 4.70398 56.9779 4.67971C56.9647 4.63677 56.9348 4.6061 56.8883 4.5877C56.8431 4.56686 56.7868 4.55348 56.7196 4.54757C56.6524 4.54165 56.5777 4.54112 56.4954 4.54597C56.415 4.55025 56.3327 4.5551 56.2486 4.56052C56.1663 4.56537 56.0856 4.56872 56.0065 4.57055C55.9273 4.57239 55.8564 4.56762 55.7937 4.55625C55.7592 4.5505 55.7227 4.5382 55.6843 4.51938C55.6471 4.49811 55.6089 4.48022 55.5697 4.4657C55.5213 4.44788 55.4756 4.43228 55.4327 4.41891C55.3892 4.40367 55.348 4.38262 55.3091 4.35575C55.2721 4.32831 55.2383 4.29168 55.2079 4.24586C55.1775 4.20004 55.1499 4.13699 55.1253 4.05671C55.0805 3.91108 55.0648 3.79024 55.0782 3.69418C55.0911 3.59625 55.1267 3.51276 55.1852 3.44372C55.2436 3.37467 55.3223 3.31475 55.4211 3.26395C55.5199 3.21316 55.6317 3.16144 55.7565 3.10879C55.8127 3.0854 55.8726 3.06087 55.9362 3.03519C56.0011 3.00707 56.0662 2.98297 56.1316 2.96289C56.1783 2.94855 56.2371 2.94068 56.3082 2.93927C56.3793 2.93786 56.4533 2.94579 56.5301 2.96305C56.6088 2.97974 56.6869 3.00784 56.7644 3.04736C56.8413 3.08501 56.9084 3.13695 56.9655 3.20317C56.9817 3.2227 56.9971 3.23944 57.0116 3.25337C57.0255 3.26544 57.0376 3.27808 57.0478 3.2913C57.0592 3.30207 57.0691 3.31435 57.0775 3.32814C57.0852 3.34006 57.0922 3.35629 57.0986 3.37683C57.1049 3.42393 57.1039 3.46407 57.0957 3.49723C57.0888 3.52796 57.0743 3.55387 57.0522 3.57497C57.03 3.59607 57.0009 3.61423 56.9647 3.62944C56.9304 3.64407 56.8889 3.65884 56.8404 3.67376C56.8199 3.68007 56.8012 3.6858 56.7844 3.69097C56.7694 3.69556 56.7586 3.69685 56.7519 3.69483C56.7104 3.69941 56.6617 3.69394 56.6058 3.67841C56.55 3.66288 56.4926 3.64576 56.4337 3.62707C56.3749 3.60838 56.3178 3.59221 56.2625 3.57854C56.2085 3.56244 56.1639 3.55675 56.1286 3.56148C56.071 3.56691 56.0207 3.57622 55.9778 3.58942C55.8919 3.61581 55.8292 3.65448 55.7897 3.70544C55.7496 3.75454 55.737 3.80335 55.7519 3.8519C55.7611 3.88177 55.7861 3.90985 55.8269 3.93614C55.8695 3.96187 55.9153 3.98457 55.9643 4.00426C56.0126 4.02209 56.0589 4.03647 56.1032 4.0474C56.1474 4.05833 56.1757 4.06394 56.188 4.06423C56.2047 4.06524 56.2258 4.0608 56.2514 4.0509C56.2788 4.04043 56.3051 4.03642 56.3304 4.03887C56.3489 4.03931 56.3667 4.04405 56.3838 4.05311C56.4003 4.06029 56.4185 4.06288 56.4383 4.06088C56.4896 4.06148 56.5422 4.05654 56.5962 4.04608C56.6496 4.03375 56.702 4.02789 56.7532 4.02848C56.9083 4.02782 57.0363 4.03857 57.1371 4.06072C57.2379 4.08288 57.3252 4.12448 57.3991 4.18554C57.4725 4.24473 57.5385 4.32661 57.5972 4.43117C57.6578 4.53515 57.7241 4.66801 57.7963 4.82972C57.8168 4.87655 57.8378 4.91504 57.8594 4.9452C57.8803 4.9735 57.8957 5.00352 57.9054 5.03525C57.9146 5.06513 57.9172 5.10009 57.9131 5.14015Z" fill="black"/>
<path d="M54.8069 4.70621C54.8238 4.74801 54.8401 4.79102 54.8557 4.83525C54.8708 4.87762 54.8855 4.92214 54.8998 4.96882C54.9406 5.10137 54.9753 5.2378 55.0041 5.37811C55.0324 5.51655 55.0576 5.65182 55.0798 5.78394C55.0868 5.82674 55.0923 5.87104 55.0961 5.91685C55.1013 5.96021 55.1087 5.99777 55.1185 6.02951C55.1397 6.09859 55.1669 6.16379 55.2 6.22512C55.2326 6.28458 55.2572 6.34138 55.2738 6.39552C55.2773 6.40673 55.2776 6.43422 55.2747 6.47802C55.2718 6.52182 55.2598 6.56941 55.2389 6.62081C55.2197 6.67164 55.1889 6.72095 55.1464 6.76875C55.1063 6.81785 55.0499 6.85358 54.9771 6.87595C54.893 6.90177 54.8286 6.89499 54.7839 6.85563C54.7409 6.81569 54.708 6.75839 54.6851 6.68371C54.669 6.63143 54.6564 6.57399 54.6474 6.51138C54.6378 6.4469 54.6289 6.3812 54.6206 6.31428C54.5805 6.33681 54.543 6.36774 54.5081 6.40707C54.4751 6.44583 54.4433 6.48215 54.4129 6.51602C54.3456 6.58981 54.2793 6.66639 54.2137 6.74577C54.1501 6.82458 54.0776 6.90102 53.9961 6.97508C53.9147 7.04915 53.8216 7.11861 53.7169 7.18348C53.614 7.24777 53.4898 7.30229 53.3442 7.34703C53.3404 7.34818 53.3255 7.35277 53.2994 7.3608C53.2757 7.37012 53.2467 7.37902 53.2126 7.38747C53.1784 7.39593 53.1415 7.40217 53.1018 7.40617C53.0641 7.4096 53.0286 7.40722 52.9954 7.39902C52.9417 7.37057 52.8858 7.33156 52.8277 7.282C52.772 7.23373 52.7203 7.18524 52.6727 7.13654C52.6263 7.08541 52.5878 7.04001 52.5573 7.00037C52.5267 6.96073 52.51 6.93624 52.5071 6.9269C52.5005 6.91871 52.4961 6.91089 52.4938 6.90342C52.4909 6.89408 52.488 6.88475 52.4852 6.87541C52.4731 6.83621 52.4636 6.79521 52.4566 6.75241C52.449 6.70775 52.4432 6.6656 52.4392 6.62597C52.4346 6.58447 52.4311 6.54979 52.4286 6.52193C52.4256 6.4922 52.4227 6.47267 52.4198 6.46334C52.4055 6.41666 52.388 6.373 52.3673 6.33236C52.3461 6.28984 52.3274 6.24245 52.3114 6.19017C52.3039 6.1659 52.2971 6.14041 52.2909 6.1137C52.2861 6.08455 52.2837 6.0536 52.2839 6.02086C52.2833 6.019 52.2842 6.00543 52.2867 5.98015C52.2891 5.95488 52.292 5.92746 52.2951 5.89788C52.3002 5.86772 52.3046 5.83879 52.3083 5.81108C52.3139 5.78279 52.3189 5.76592 52.3234 5.76047C52.333 5.74525 52.3479 5.73046 52.368 5.71611C52.3881 5.70176 52.411 5.68655 52.4367 5.67047C52.4624 5.6544 52.4881 5.63833 52.5139 5.62226C52.5414 5.60561 52.5672 5.58645 52.5912 5.56478C52.6278 5.53105 52.6581 5.49315 52.6819 5.45108C52.7077 5.40844 52.7328 5.37722 52.7574 5.35742C52.7732 5.34234 52.7961 5.32713 52.8261 5.31178C52.858 5.29585 52.8894 5.27497 52.9202 5.24914C52.9422 5.23421 52.9689 5.21476 53.0004 5.19079C53.0313 5.16496 53.0646 5.14042 53.1004 5.11717C53.1374 5.09148 53.175 5.06766 53.2133 5.0457C53.2509 5.02188 53.2878 5.00236 53.324 4.98716C53.3408 4.98199 53.3622 4.97848 53.3882 4.97663C53.416 4.9742 53.4477 4.96753 53.4832 4.95663C53.5093 4.9486 53.5393 4.93325 53.5732 4.91057C53.6071 4.8879 53.6502 4.86853 53.7025 4.85247C53.7548 4.83641 53.8063 4.82465 53.8572 4.8172C53.908 4.80976 53.9465 4.80202 53.9726 4.79399C53.9932 4.78768 54.0036 4.77835 54.0039 4.766C54.0054 4.75121 54.0037 4.73541 53.9985 4.71861C53.9899 4.6906 53.9743 4.65965 53.9516 4.62575C53.9289 4.59186 53.9046 4.55947 53.8788 4.52858C53.853 4.4977 53.8295 4.4712 53.8084 4.44907C53.7873 4.42695 53.7728 4.41302 53.7649 4.40727C53.726 4.3804 53.686 4.36308 53.6447 4.35531C53.6054 4.34697 53.5717 4.3471 53.5437 4.35571C53.5139 4.36488 53.4851 4.3778 53.4575 4.39444C53.4318 4.41052 53.4012 4.424 53.3658 4.4349C53.3396 4.44293 53.312 4.44938 53.2828 4.45425C53.2556 4.45855 53.2288 4.46472 53.2027 4.47275C53.1392 4.49225 53.0704 4.53078 52.9961 4.58833C52.9237 4.64531 52.8518 4.70725 52.7804 4.77414C52.7109 4.84045 52.6445 4.90375 52.5813 4.96404C52.5194 5.02188 52.4678 5.06329 52.4264 5.08826C52.4038 5.10132 52.3804 5.11466 52.3559 5.12829C52.331 5.14006 52.3063 5.14967 52.2821 5.15713C52.2671 5.16172 52.2434 5.16085 52.2108 5.15452C52.1795 5.14574 52.147 5.13324 52.1134 5.117C52.0798 5.10076 52.0482 5.08086 52.0185 5.0573C51.99 5.0313 51.9712 5.00336 51.9621 4.97349C51.9483 4.92868 51.9492 4.88854 51.9649 4.85308C51.98 4.81575 52.0021 4.78137 52.0313 4.74993C52.0604 4.7185 52.0933 4.689 52.1298 4.66145C52.1675 4.63145 52.2001 4.60102 52.2274 4.57016C52.2623 4.53082 52.3032 4.48453 52.3502 4.43127C52.3972 4.37802 52.4363 4.32921 52.4676 4.28485C52.4997 4.23618 52.5207 4.19498 52.5308 4.16124C52.5403 4.12563 52.5558 4.09634 52.5774 4.07338C52.5989 4.05041 52.6357 4.02379 52.6877 3.99351C52.7397 3.96323 52.7876 3.93316 52.8316 3.90331C52.8448 3.89312 52.8628 3.87841 52.8855 3.85918C52.91 3.83937 52.9349 3.8205 52.96 3.80256C52.987 3.78405 53.0124 3.76704 53.0363 3.75154C53.062 3.73547 53.0823 3.72514 53.0972 3.72055L53.1084 3.7171C53.1479 3.71927 53.1912 3.71721 53.2383 3.71091C53.2849 3.70274 53.3333 3.694 53.3835 3.68469C53.4356 3.6748 53.4871 3.66613 53.538 3.65868C53.5901 3.6488 53.6403 3.64257 53.6885 3.64C53.7046 3.63915 53.7212 3.64325 53.7383 3.6523C53.7548 3.65949 53.7714 3.66359 53.788 3.6646C53.8634 3.66391 53.9279 3.6676 53.9815 3.67566C54.0344 3.68185 54.0858 3.70284 54.1357 3.73861C54.1849 3.77252 54.2376 3.82783 54.2939 3.90453C54.3515 3.97879 54.4213 4.083 54.5034 4.21715C54.5212 4.24846 54.5446 4.27496 54.5738 4.29666C54.6029 4.31835 54.6264 4.34177 54.6444 4.3669C54.6737 4.40899 54.7024 4.46249 54.7305 4.52741C54.7599 4.58988 54.7854 4.64949 54.8069 4.70621ZM54.3645 5.66046C54.371 5.64825 54.3703 5.626 54.3624 5.59368C54.3558 5.55893 54.3462 5.52102 54.3336 5.47994C54.3187 5.4314 54.3057 5.39248 54.2946 5.36318C54.283 5.33202 54.2718 5.3089 54.2611 5.29381C54.2503 5.27873 54.2394 5.26983 54.2283 5.26709C54.2167 5.26249 54.2034 5.26249 54.1885 5.26708C54.1773 5.27052 54.1673 5.27461 54.1585 5.27934C54.1516 5.2835 54.1447 5.28767 54.1378 5.29183C54.1315 5.29786 54.1249 5.30295 54.118 5.30711C54.087 5.31256 54.0584 5.3193 54.0323 5.32733C54.008 5.33478 53.9828 5.34253 53.9567 5.35056C53.9044 5.36662 53.8567 5.38434 53.8136 5.40371C53.7724 5.4225 53.7318 5.44316 53.6917 5.46569C53.6535 5.48765 53.6156 5.51054 53.5779 5.53436C53.5403 5.55818 53.4996 5.58193 53.4558 5.60561C53.3937 5.64306 53.3356 5.67319 53.2813 5.69601C53.227 5.71882 53.1819 5.74493 53.146 5.77436C53.1101 5.80378 53.0866 5.8406 53.0757 5.88483C53.0642 5.92718 53.0702 5.98663 53.0937 6.06318C53.1178 6.14159 53.1547 6.18849 53.2044 6.20388C53.2535 6.21739 53.3173 6.21211 53.3957 6.18801C53.4199 6.18055 53.4468 6.16822 53.4763 6.151C53.5051 6.13191 53.5356 6.11131 53.5676 6.08921C53.6015 6.06654 53.6354 6.04386 53.6693 6.02119C53.7045 5.99607 53.7403 5.97282 53.7766 5.95144C53.8029 5.93724 53.831 5.92246 53.861 5.9071C53.8924 5.88931 53.923 5.87274 53.953 5.85738C53.9849 5.84146 54.014 5.82639 54.0403 5.81218C54.0684 5.7974 54.0922 5.78499 54.1116 5.77495C54.1241 5.76907 54.1441 5.76089 54.1715 5.75042C54.1983 5.73808 54.2255 5.72667 54.2529 5.7162C54.2798 5.70386 54.3041 5.69332 54.3259 5.68457C54.3491 5.67337 54.3619 5.66534 54.3645 5.66046Z" fill="black"/>
<path d="M52.329 6.85597C52.3267 6.87506 52.3204 6.89438 52.31 6.9139C52.2997 6.93343 52.2875 6.95352 52.2734 6.9742C52.2612 6.9943 52.2474 7.0159 52.232 7.03901C52.2179 7.05969 52.205 7.08409 52.1932 7.11223C52.1729 7.15933 52.1594 7.20843 52.1526 7.25955C52.1477 7.31009 52.1372 7.35216 52.1209 7.38576C52.1215 7.38762 52.1148 7.39889 52.1007 7.41957C52.0879 7.4378 52.0726 7.45782 52.0548 7.47964C52.0388 7.50089 52.0245 7.52063 52.0117 7.53886C51.9989 7.55709 51.9941 7.5647 51.9972 7.56169C51.9833 7.57618 51.9661 7.58659 51.9455 7.5929C51.9274 7.6005 51.9062 7.60803 51.882 7.61549C51.8372 7.62926 51.7878 7.64137 51.7338 7.65183C51.6798 7.6623 51.6266 7.67556 51.5744 7.69162C51.5221 7.70768 51.4724 7.73215 51.4253 7.76501C51.3782 7.79788 51.3275 7.82263 51.2734 7.83926C51.2267 7.85361 51.1813 7.86859 51.137 7.88423C51.0928 7.89986 51.0473 7.91485 51.0007 7.92919C50.8924 7.96246 50.7896 7.98691 50.6922 8.00252C50.5967 8.01756 50.5047 8.01724 50.4161 8.00155C50.328 7.98773 50.2429 7.95668 50.1606 7.9084C50.0802 7.85955 50.0032 7.78822 49.9294 7.69443C49.9132 7.67489 49.8992 7.65263 49.8874 7.62764C49.8769 7.60021 49.8662 7.57184 49.8551 7.54254C49.846 7.51267 49.8358 7.48309 49.8248 7.45379C49.815 7.42205 49.804 7.39275 49.7917 7.36589C49.7538 7.2958 49.7191 7.23598 49.6875 7.18643C49.6578 7.1363 49.6358 7.0879 49.6214 7.04123C49.6059 6.99082 49.6049 6.94106 49.6185 6.89196C49.632 6.84285 49.6568 6.79741 49.693 6.75564C49.7305 6.71143 49.7769 6.67268 49.832 6.63938C49.8885 6.60365 49.9512 6.57517 50.0203 6.55394C50.0576 6.54247 50.0887 6.53394 50.1136 6.52835C50.1403 6.52218 50.1672 6.52004 50.1944 6.52192C50.2228 6.52136 50.2542 6.52704 50.2885 6.53897C50.3241 6.54846 50.3697 6.56406 50.4254 6.58577C50.448 6.59927 50.4749 6.61041 50.5062 6.61918C50.5388 6.62551 50.5615 6.63285 50.5743 6.64118C50.5925 6.65397 50.6079 6.6707 50.6203 6.69139C50.6347 6.71149 50.6493 6.73254 50.6643 6.75451C50.6792 6.77649 50.6954 6.79602 50.7129 6.81312C50.7304 6.83021 50.7515 6.84214 50.776 6.8489C50.801 6.8637 50.8261 6.87233 50.8514 6.87478C50.8767 6.87723 50.9003 6.88119 50.9225 6.88665C50.9459 6.88968 50.9667 6.89758 50.9849 6.91037C51.0031 6.92316 51.0174 6.94635 51.0278 6.97996C51.0329 6.99676 51.0369 7.01292 51.0396 7.02843C51.0423 7.04394 51.046 7.05916 51.0505 7.07409C51.0597 7.10397 51.0752 7.12781 51.097 7.14562C51.1189 7.16344 51.1445 7.17702 51.1739 7.18636C51.2028 7.19384 51.2324 7.19701 51.2627 7.19588C51.293 7.19474 51.3212 7.19015 51.3473 7.18212C51.3809 7.1718 51.4128 7.15587 51.443 7.13434C51.475 7.11224 51.5025 7.0854 51.5255 7.05382C51.5479 7.02037 51.5633 6.98397 51.5716 6.94463C51.5794 6.90342 51.5764 6.86041 51.5626 6.8156C51.5517 6.78013 51.5319 6.74229 51.5032 6.70207C51.4764 6.66128 51.4547 6.61381 51.438 6.55967C51.43 6.53353 51.4226 6.50617 51.4159 6.47759C51.4086 6.44715 51.4012 6.41979 51.3937 6.39552C51.3805 6.35258 51.3507 6.32191 51.3042 6.30351C51.2589 6.28267 51.2027 6.26929 51.1355 6.26338C51.0683 6.25747 50.9936 6.25694 50.9113 6.26179C50.8309 6.26606 50.7486 6.27091 50.6644 6.27634C50.5822 6.28119 50.5015 6.28453 50.4223 6.28637C50.3432 6.2882 50.2723 6.28344 50.2095 6.27207C50.1751 6.26631 50.1386 6.25402 50.1001 6.23519C50.0629 6.21392 50.0247 6.19603 49.9855 6.18151C49.9372 6.16369 49.8915 6.14809 49.8486 6.13472C49.8051 6.11948 49.7639 6.09843 49.725 6.07156C49.6879 6.04412 49.6542 6.00749 49.6238 5.96167C49.5933 5.91585 49.5658 5.8528 49.5411 5.77252C49.4964 5.6269 49.4807 5.50605 49.4941 5.40999C49.5069 5.31206 49.5426 5.22858 49.601 5.15953C49.6595 5.09048 49.7382 5.03056 49.837 4.97977C49.9358 4.92897 50.0476 4.87725 50.1724 4.8246C50.2286 4.80121 50.2884 4.77668 50.3521 4.751C50.417 4.72288 50.4821 4.69878 50.5475 4.67871C50.5941 4.66437 50.653 4.65649 50.7241 4.65508C50.7952 4.65367 50.8691 4.6616 50.9459 4.67886C51.0246 4.69555 51.1027 4.72365 51.1803 4.76317C51.2572 4.80083 51.3242 4.85276 51.3814 4.91898C51.3976 4.93852 51.4129 4.95525 51.4274 4.96919C51.4414 4.98125 51.4534 4.9939 51.4636 5.00711C51.4751 5.01788 51.485 5.03017 51.4933 5.04395C51.5011 5.05588 51.5081 5.07211 51.5144 5.09264C51.5207 5.13974 51.5198 5.17988 51.5116 5.21305C51.5047 5.24377 51.4902 5.26969 51.468 5.29079C51.4459 5.31189 51.4168 5.33004 51.3806 5.34525C51.3462 5.35988 51.3048 5.37466 51.2563 5.38957C51.2357 5.39588 51.2171 5.40162 51.2002 5.40678C51.1853 5.41137 51.1745 5.41266 51.1677 5.41064C51.1262 5.41522 51.0775 5.40975 51.0217 5.39422C50.9658 5.37869 50.9085 5.36158 50.8496 5.34289C50.7907 5.3242 50.7337 5.30802 50.6784 5.29436C50.6244 5.27825 50.5797 5.27256 50.5444 5.27729C50.4868 5.28272 50.4366 5.29204 50.3936 5.30523C50.3078 5.33162 50.2451 5.37029 50.2055 5.42125C50.1655 5.47035 50.1529 5.51917 50.1678 5.56771C50.177 5.59758 50.202 5.62566 50.2427 5.65196C50.2854 5.67768 50.3312 5.70038 50.3801 5.72008C50.4285 5.7379 50.4748 5.75228 50.519 5.76321C50.5633 5.77414 50.5915 5.77975 50.6039 5.78004C50.6205 5.78105 50.6417 5.77661 50.6672 5.76671C50.6947 5.75624 50.721 5.75223 50.7463 5.75468C50.7648 5.75512 50.7826 5.75987 50.7997 5.76892C50.8162 5.7761 50.8344 5.7787 50.8542 5.77669C50.9054 5.77729 50.9581 5.77235 51.0121 5.76189C51.0655 5.74956 51.1178 5.7437 51.1691 5.74429C51.3242 5.74363 51.4521 5.75438 51.5529 5.77654C51.6537 5.79869 51.7411 5.84029 51.815 5.90135C51.8884 5.96054 51.9544 6.04242 52.0131 6.14698C52.0736 6.25097 52.14 6.38382 52.2122 6.54554C52.2327 6.59236 52.2537 6.63085 52.2752 6.66101C52.2962 6.68931 52.3115 6.71933 52.3213 6.75107C52.3305 6.78094 52.333 6.8159 52.329 6.85597Z" fill="black"/>
<path d="M49.2227 6.42203C49.2397 6.46382 49.256 6.50683 49.2716 6.55107C49.2866 6.59343 49.3014 6.63796 49.3157 6.68463C49.3564 6.81719 49.3912 6.95362 49.42 7.09392C49.4482 7.23236 49.4735 7.36764 49.4957 7.49975C49.5027 7.54255 49.5081 7.58685 49.512 7.63266C49.5171 7.67603 49.5246 7.71358 49.5343 7.74532C49.5556 7.8144 49.5827 7.8796 49.6159 7.94093C49.6485 8.00039 49.6731 8.05719 49.6897 8.11134C49.6931 8.12254 49.6934 8.15004 49.6905 8.19383C49.6876 8.23763 49.6757 8.28523 49.6547 8.33663C49.6356 8.38745 49.6048 8.43676 49.5623 8.48457C49.5222 8.53366 49.4657 8.56939 49.3929 8.59177C49.3089 8.61758 49.2445 8.61081 49.1997 8.57144C49.1568 8.53151 49.1239 8.4742 49.1009 8.39952C49.0849 8.34724 49.0723 8.2898 49.0633 8.22719C49.0537 8.16271 49.0447 8.09701 49.0364 8.03009C48.9964 8.05262 48.9589 8.08355 48.924 8.12288C48.8909 8.16164 48.8592 8.19796 48.8287 8.23184C48.7615 8.30562 48.6951 8.3822 48.6296 8.46159C48.566 8.5404 48.4934 8.61683 48.412 8.6909C48.3305 8.76496 48.2374 8.83442 48.1327 8.89929C48.0299 8.96358 47.9057 9.0181 47.76 9.06284C47.7563 9.06399 47.7414 9.06858 47.7152 9.07661C47.6915 9.08594 47.6626 9.09483 47.6284 9.10329C47.5942 9.11175 47.5573 9.11798 47.5177 9.12198C47.4799 9.12542 47.4445 9.12303 47.4113 9.11483C47.3576 9.08638 47.3017 9.04737 47.2436 8.99781C47.1879 8.94954 47.1362 8.90106 47.0885 8.85236C47.0422 8.80122 47.0037 8.75583 46.9731 8.71618C46.9426 8.67654 46.9258 8.65205 46.923 8.64271C46.9164 8.63453 46.9119 8.6267 46.9096 8.61923C46.9068 8.6099 46.9039 8.60056 46.901 8.59123C46.889 8.55202 46.8794 8.51102 46.8724 8.46822C46.8648 8.42356 46.859 8.38141 46.855 8.34178C46.8504 8.30028 46.8469 8.2656 46.8445 8.23774C46.8415 8.20801 46.8386 8.18848 46.8357 8.17915C46.8214 8.13248 46.8039 8.08881 46.7832 8.04817C46.762 8.00566 46.7433 7.95826 46.7272 7.90599C46.7198 7.88172 46.713 7.85622 46.7068 7.82951C46.7019 7.80036 46.6996 7.76942 46.6997 7.73668C46.6992 7.73481 46.7001 7.72124 46.7026 7.69597C46.705 7.67069 46.7078 7.64327 46.711 7.61369C46.716 7.58354 46.7204 7.5546 46.7242 7.52689C46.7298 7.4986 46.7348 7.48173 46.7393 7.47628C46.7489 7.46106 46.7638 7.44628 46.7839 7.43192C46.804 7.41757 46.8269 7.40236 46.8526 7.38629C46.8783 7.37021 46.904 7.35414 46.9297 7.33807C46.9573 7.32142 46.9831 7.30226 47.0071 7.28059C47.0437 7.24686 47.0739 7.20896 47.0978 7.1669C47.1235 7.12426 47.1487 7.09304 47.1732 7.07323C47.189 7.05816 47.2119 7.04294 47.242 7.02759C47.2738 7.01166 47.3052 6.99078 47.3361 6.96495C47.3581 6.95002 47.3848 6.93058 47.4163 6.90661C47.4471 6.88077 47.4805 6.85623 47.5162 6.83298C47.5533 6.80729 47.5909 6.78347 47.6291 6.76151C47.6668 6.73769 47.7037 6.71818 47.7399 6.70297C47.7567 6.69781 47.7781 6.6943 47.804 6.69244C47.8319 6.69001 47.8636 6.68335 47.899 6.67245C47.9252 6.66441 47.9552 6.64906 47.9891 6.62639C48.023 6.60371 48.0661 6.58434 48.1184 6.56828C48.1706 6.55222 48.2222 6.54046 48.273 6.53302C48.3239 6.52557 48.3623 6.51783 48.3885 6.5098C48.409 6.50349 48.4194 6.49416 48.4197 6.48181C48.4213 6.46702 48.4195 6.45122 48.4144 6.43442C48.4058 6.40642 48.3901 6.37546 48.3674 6.34157C48.3448 6.30767 48.3205 6.27528 48.2947 6.2444C48.2688 6.21351 48.2454 6.18701 48.2243 6.16489C48.2032 6.14276 48.1887 6.12883 48.1808 6.12308C48.1419 6.09622 48.1018 6.0789 48.0606 6.07113C48.0213 6.06278 47.9876 6.06291 47.9596 6.07152C47.9297 6.0807 47.901 6.09361 47.8734 6.11026C47.8477 6.12633 47.8171 6.13981 47.7816 6.15071C47.7555 6.15874 47.7279 6.1652 47.6987 6.17007C47.6714 6.17436 47.6447 6.18053 47.6186 6.18856C47.5551 6.20806 47.4862 6.24659 47.412 6.30415C47.3396 6.36113 47.2677 6.42306 47.1963 6.48995C47.1268 6.55626 47.0604 6.61956 46.9972 6.67985C46.9353 6.73769 46.8836 6.7791 46.8423 6.80407C46.8197 6.81713 46.7962 6.83047 46.7718 6.84411C46.7468 6.85587 46.7222 6.86548 46.6979 6.87294C46.683 6.87753 46.6592 6.87666 46.6266 6.87033C46.5953 6.86156 46.5629 6.84905 46.5293 6.83281C46.4957 6.81657 46.464 6.79667 46.4343 6.77311C46.4059 6.74711 46.3871 6.71917 46.3779 6.6893C46.3642 6.64449 46.3651 6.60436 46.3808 6.5689C46.3959 6.53157 46.418 6.49718 46.4471 6.46575C46.4763 6.43431 46.5091 6.40481 46.5456 6.37726C46.5834 6.34726 46.6159 6.31683 46.6432 6.28597C46.6781 6.24664 46.7191 6.20034 46.7661 6.14709C46.813 6.09383 46.8522 6.04502 46.8835 6.00066C46.9155 5.952 46.9366 5.91079 46.9467 5.87705C46.9562 5.84144 46.9717 5.81216 46.9932 5.78919C47.0148 5.76622 47.0515 5.7396 47.1035 5.70932C47.1555 5.67904 47.2035 5.64898 47.2475 5.61913C47.2607 5.60894 47.2786 5.59422 47.3013 5.57499C47.3259 5.55518 47.3507 5.53631 47.3759 5.51837C47.4029 5.49986 47.4283 5.48285 47.4521 5.46735C47.4778 5.45128 47.4982 5.44095 47.5131 5.43636L47.5243 5.43292C47.5638 5.43509 47.6071 5.43302 47.6542 5.42672C47.7007 5.41855 47.7491 5.40981 47.7994 5.4005C47.8515 5.39061 47.903 5.38194 47.9538 5.3745C48.006 5.36461 48.0561 5.35838 48.1044 5.35582C48.1205 5.35496 48.1371 5.35906 48.1541 5.36811C48.1707 5.3753 48.1872 5.3794 48.2039 5.38041C48.2793 5.37972 48.3438 5.38341 48.3973 5.39147C48.4503 5.39767 48.5017 5.41865 48.5515 5.45443C48.6008 5.48833 48.6535 5.54364 48.7098 5.62034C48.7673 5.6946 48.8371 5.79881 48.9192 5.93296C48.937 5.96427 48.9605 5.99078 48.9896 6.01247C49.0188 6.03416 49.0423 6.05758 49.0603 6.08272C49.0895 6.1248 49.1182 6.1783 49.1463 6.24322C49.1758 6.3057 49.2012 6.3653 49.2227 6.42203ZM48.7804 7.37627C48.7868 7.36407 48.7861 7.34181 48.7783 7.3095C48.7717 7.27474 48.7621 7.23683 48.7494 7.19576C48.7345 7.14721 48.7215 7.1083 48.7105 7.079C48.6989 7.04783 48.6877 7.02471 48.6769 7.00963C48.6662 6.99455 48.6552 6.98564 48.6442 6.98291C48.6326 6.97831 48.6193 6.9783 48.6043 6.98289C48.5931 6.98633 48.5832 6.99042 48.5744 6.99516C48.5675 6.99932 48.5606 7.00348 48.5537 7.00764C48.5474 7.01367 48.5408 7.01876 48.5339 7.02293C48.5029 7.02837 48.4743 7.03511 48.4482 7.04314C48.4239 7.0506 48.3987 7.05834 48.3725 7.06637C48.3203 7.08243 48.2726 7.10015 48.2295 7.11952C48.1883 7.13831 48.1476 7.15898 48.1076 7.18151C48.0694 7.20346 48.0314 7.22635 47.9938 7.25017C47.9562 7.27399 47.9155 7.29774 47.8717 7.32142C47.8096 7.35887 47.7514 7.38901 47.6971 7.41182C47.6429 7.43463 47.5978 7.46075 47.5618 7.49017C47.5259 7.51959 47.5025 7.55642 47.4916 7.60064C47.4801 7.643 47.4861 7.70245 47.5096 7.77899C47.5337 7.85741 47.5706 7.90431 47.6203 7.91969C47.6694 7.93321 47.7331 7.92792 47.8115 7.90382C47.8358 7.89637 47.8627 7.88403 47.8921 7.86681C47.921 7.84772 47.9514 7.82713 47.9835 7.80503C48.0174 7.78235 48.0513 7.75968 48.0852 7.737C48.1204 7.71188 48.1561 7.68864 48.1925 7.66725C48.2187 7.65305 48.2469 7.63827 48.2769 7.62292C48.3082 7.60512 48.3389 7.58855 48.3689 7.5732C48.4008 7.55727 48.4299 7.5422 48.4562 7.528C48.4843 7.51322 48.5081 7.50081 48.5275 7.49076C48.54 7.48488 48.5599 7.4767 48.5874 7.46623C48.6142 7.45389 48.6414 7.44249 48.6688 7.43201C48.6956 7.41967 48.72 7.40913 48.7418 7.40038C48.7649 7.38919 48.7778 7.38115 48.7804 7.37627Z" fill="black"/>
<path d="M45.932 6.18575L45.9372 6.20255C45.9458 6.23055 45.9558 6.27651 45.9673 6.34041C45.9782 6.40245 45.9858 6.47059 45.9903 6.54483C45.9941 6.61721 45.9937 6.68886 45.9889 6.7598C45.9841 6.83073 45.9704 6.8891 45.9477 6.9349C45.9257 6.97639 45.8893 7.01105 45.8386 7.03889C45.7898 7.06615 45.7437 7.09565 45.7003 7.12736C45.6657 7.15435 45.6297 7.18686 45.5924 7.22489C45.5569 7.26236 45.5202 7.29918 45.4823 7.33535C45.4462 7.37095 45.4084 7.40403 45.3687 7.4346C45.3309 7.4646 45.2915 7.48591 45.2504 7.49853C45.2224 7.50713 45.1887 7.51035 45.1492 7.50818C45.111 7.50357 45.0721 7.48999 45.0325 7.46743C44.9929 7.44487 44.955 7.41154 44.919 7.36744C44.8848 7.32277 44.8563 7.26309 44.8333 7.18841C44.819 7.14174 44.806 7.09262 44.7942 7.04107C44.7824 6.98951 44.7691 6.93946 44.7542 6.89092C44.7381 6.83865 44.7154 6.78127 44.686 6.71879C44.6579 6.65388 44.6274 6.59478 44.5947 6.54149C44.562 6.4882 44.5303 6.44482 44.4996 6.41135C44.4683 6.37602 44.4414 6.36179 44.419 6.36867C44.4022 6.37384 44.3838 6.38359 44.3637 6.39795C44.3454 6.41172 44.3223 6.42292 44.2943 6.43152C44.2607 6.44185 44.2334 6.44614 44.2124 6.44441C44.1933 6.44211 44.177 6.43894 44.1635 6.43492C44.1495 6.42902 44.1366 6.42378 44.125 6.41918C44.1134 6.41458 44.0991 6.41486 44.0823 6.42002C44.0375 6.43379 44.0062 6.45467 43.9882 6.48266C43.9715 6.50822 43.9628 6.53952 43.9619 6.57657C43.961 6.61361 43.9634 6.65476 43.9692 6.69999C43.9767 6.74465 43.9809 6.79139 43.9816 6.84022C43.982 6.87482 43.9761 6.91546 43.9639 6.96212C43.9517 7.00879 43.9465 7.05531 43.9485 7.10169C43.9468 7.14922 43.9493 7.20056 43.956 7.2557C43.9622 7.30898 43.9652 7.36527 43.965 7.42458C43.9644 7.47584 43.9647 7.5401 43.966 7.61736C43.9691 7.69404 43.9734 7.77445 43.9788 7.8586C43.9842 7.94275 43.9925 8.02604 44.0035 8.10847C44.0145 8.1909 44.0292 8.26199 44.0476 8.32173C44.074 8.40761 44.1278 8.48302 44.209 8.54796C44.2897 8.61103 44.3832 8.65587 44.4894 8.68247C44.5201 8.68938 44.5606 8.69126 44.6107 8.68812C44.6621 8.68254 44.7124 8.68342 44.7617 8.69076C44.8091 8.69868 44.8508 8.70832 44.887 8.71968C44.9226 8.72917 44.9598 8.73715 44.9986 8.74363C45.0368 8.74824 45.08 8.74926 45.1283 8.74669C45.1778 8.74169 45.239 8.728 45.3118 8.70563C45.379 8.68497 45.4451 8.6575 45.5102 8.62321C45.5766 8.58647 45.638 8.54715 45.6946 8.50524C45.7512 8.46333 45.8013 8.42035 45.845 8.37628C45.8887 8.33221 45.9221 8.2913 45.9452 8.25354C45.9536 8.24077 45.9653 8.21571 45.9804 8.17838C45.9968 8.13861 46.0166 8.09676 46.0399 8.05283C46.0631 8.0089 46.0913 7.96756 46.1243 7.9288C46.1568 7.88817 46.1964 7.86069 46.2431 7.84635C46.2524 7.84348 46.2673 7.84198 46.2876 7.84184C46.3093 7.83927 46.3318 7.84258 46.3551 7.85178C46.3796 7.85853 46.4034 7.87269 46.4263 7.89424C46.4493 7.91579 46.4671 7.9471 46.4797 7.98817C46.4964 8.04231 46.5061 8.10062 46.509 8.16308C46.5118 8.22555 46.5213 8.28292 46.5373 8.33519C46.5442 8.3576 46.5537 8.38531 46.5659 8.41835C46.5781 8.45138 46.5891 8.48376 46.5988 8.5155C46.6189 8.58085 46.6188 8.65344 46.5983 8.73327C46.5798 8.81252 46.5313 8.90405 46.4528 9.00784C46.428 9.03999 46.3951 9.07258 46.3541 9.10559C46.3126 9.13673 46.2744 9.17197 46.2395 9.2113C46.2033 9.25308 46.1643 9.29571 46.1225 9.3392C46.0807 9.3827 46.0449 9.40903 46.015 9.41821C45.987 9.42682 45.9569 9.43197 45.9247 9.43368C45.8926 9.43539 45.8578 9.44199 45.8205 9.45346C45.7607 9.47182 45.7025 9.49175 45.6458 9.51327C45.5909 9.53421 45.5336 9.55387 45.4739 9.57222C45.444 9.5814 45.4101 9.59079 45.3722 9.6004C45.3367 9.6113 45.2997 9.62062 45.2612 9.62836C45.2233 9.63796 45.1851 9.64664 45.1466 9.65438C45.11 9.66154 45.0759 9.66691 45.0443 9.67049C45.0213 9.67551 44.9943 9.68074 44.9633 9.68618C44.9348 9.69292 44.9059 9.69872 44.8767 9.7036C44.8482 9.71033 44.8221 9.71528 44.7985 9.71843C44.7774 9.72287 44.7626 9.72437 44.754 9.72293C44.7392 9.72135 44.7239 9.71481 44.7081 9.70331C44.6923 9.69182 44.675 9.67875 44.6562 9.66409C44.6387 9.647 44.6196 9.63141 44.5989 9.61733C44.5795 9.60081 44.557 9.5873 44.5313 9.57681C44.5037 9.56689 44.4751 9.56343 44.4454 9.56644C44.4151 9.56757 44.3892 9.56326 44.3678 9.55348C44.3362 9.53049 44.3001 9.50585 44.2593 9.47956C44.2204 9.45269 44.1833 9.42834 44.148 9.4065C44.1037 9.369 44.0655 9.32763 44.0332 9.28239C44.0009 9.23714 43.9659 9.20295 43.9281 9.17982C43.9135 9.17206 43.8945 9.16666 43.871 9.16364C43.8489 9.15817 43.825 9.15328 43.7991 9.14896C43.7727 9.14278 43.7463 9.13659 43.7199 9.13041C43.6947 9.12178 43.6718 9.11043 43.6512 9.09635C43.642 9.09304 43.6262 9.08155 43.6038 9.06187C43.5833 9.04161 43.5615 9.02071 43.5385 8.99916C43.5174 8.97704 43.4984 8.95837 43.4815 8.94314C43.4658 8.92547 43.4586 8.9185 43.4597 8.92224C43.4563 8.91103 43.4557 8.89589 43.458 8.87679C43.4616 8.85525 43.4662 8.83342 43.4716 8.81131C43.4771 8.7892 43.4807 8.76766 43.4824 8.7467C43.486 8.72516 43.4858 8.70786 43.4818 8.69479C43.472 8.66305 43.4588 8.63648 43.442 8.61508C43.4246 8.59181 43.4092 8.56488 43.3957 8.53429C43.3762 8.47081 43.3538 8.3878 43.3284 8.28526C43.3024 8.18086 43.2773 8.06906 43.2529 7.94986C43.2304 7.8301 43.2098 7.70975 43.191 7.58884C43.1735 7.46548 43.1623 7.35247 43.1573 7.24979C43.1549 7.1688 43.1547 7.08509 43.1568 6.99864C43.1588 6.9122 43.1492 6.83444 43.128 6.76536C43.1206 6.74109 43.1112 6.71739 43.1 6.69427C43.0888 6.67114 43.0795 6.64745 43.0721 6.62318C43.0566 6.57277 43.0595 6.52897 43.0807 6.49179C43.102 6.4546 43.1309 6.41915 43.1676 6.38542C43.2036 6.34982 43.2428 6.31429 43.285 6.27884C43.3272 6.24339 43.3613 6.20126 43.3872 6.15245C43.393 6.13838 43.3956 6.12021 43.3949 6.09795C43.3942 6.0757 43.3926 6.05372 43.39 6.03204C43.3874 6.01036 43.3851 5.98961 43.3831 5.96979C43.3806 5.9481 43.3825 5.93116 43.389 5.91896C43.3923 5.90977 43.3983 5.90281 43.4071 5.89807C43.4177 5.89276 43.4293 5.88717 43.4418 5.88128C43.4561 5.87483 43.4711 5.86715 43.4868 5.85825C43.5037 5.84692 43.5198 5.83278 43.535 5.81584C43.5503 5.7989 43.5608 5.7834 43.5667 5.76933C43.5739 5.75282 43.5807 5.73846 43.5872 5.72626C43.5937 5.71405 43.6026 5.70314 43.6139 5.69353C43.6253 5.68391 43.6424 5.67659 43.6654 5.67158C43.686 5.66527 43.7068 5.65989 43.7279 5.65545C43.7509 5.65043 43.7708 5.64534 43.7876 5.64018C43.8156 5.63157 43.8442 5.62175 43.8735 5.6107C43.9047 5.59908 43.9361 5.5884 43.9679 5.57864C44.0201 5.56258 44.0648 5.55499 44.1019 5.55586C44.1389 5.55674 44.1728 5.56063 44.2035 5.56754C44.2337 5.57257 44.2632 5.57883 44.292 5.58631C44.3209 5.59379 44.3551 5.59552 44.3948 5.59152C44.4481 5.58537 44.5002 5.57548 44.5512 5.56186C44.6034 5.54579 44.6541 5.53124 44.7032 5.51819C44.7518 5.50327 44.8005 5.49238 44.8495 5.48551C44.8998 5.47619 44.9502 5.47399 45.0007 5.47889C45.0303 5.48206 45.0637 5.49428 45.1009 5.51554C45.1393 5.53437 45.1794 5.55169 45.221 5.5675C45.2602 5.58202 45.3004 5.59316 45.3416 5.60093C45.3842 5.60626 45.416 5.6169 45.4373 5.63285C45.4548 5.64995 45.4736 5.67788 45.4937 5.71666C45.5156 5.75487 45.5393 5.78539 45.5647 5.80823C45.5907 5.83294 45.621 5.85837 45.6556 5.88452C45.6915 5.90822 45.7273 5.93502 45.763 5.9649C45.7982 5.99292 45.8308 6.02581 45.8608 6.06359C45.8902 6.0995 45.914 6.14022 45.932 6.18575Z" fill="black"/>
<path d="M58.6404 8.07998C58.7495 7.92716 58.8772 7.82944 59.0234 7.78683C59.225 7.7281 59.3955 7.75116 59.5349 7.85601C59.6749 7.95965 59.7788 8.12772 59.8465 8.36024C59.8946 8.52526 59.9065 8.67946 59.8821 8.82285C59.8587 8.96597 59.7977 9.09003 59.6992 9.19504C59.6003 9.29911 59.4665 9.37573 59.2977 9.4249C59.204 9.45222 59.1162 9.47219 59.0344 9.48482C58.9527 9.49746 58.8867 9.50497 58.8366 9.50738C58.7871 9.50858 58.7562 9.50894 58.7438 9.50847L58.1776 7.56486L57.9301 7.57439L57.8838 7.41547L58.3987 7.25022L58.6404 8.07998ZM58.9776 9.23742C58.9782 9.2393 59.0056 9.23741 59.0599 9.23176C59.1139 9.22518 59.1855 9.20891 59.2745 9.18296C59.4321 9.13707 59.5301 9.05105 59.5686 8.92489C59.608 8.79845 59.6026 8.64898 59.5524 8.47646C59.5032 8.3077 59.4349 8.18317 59.3474 8.10287C59.2606 8.02136 59.1558 7.99849 59.033 8.03428C58.9561 8.05667 58.8936 8.09013 58.8455 8.13465C58.7981 8.17796 58.7636 8.22005 58.742 8.26095C58.7212 8.30156 58.7117 8.32469 58.7133 8.33031L58.9776 9.23742Z" fill="black"/>
<path d="M58.4346 9.6306L57.9633 9.78315L57.8766 9.59024C57.8344 9.65847 57.7715 9.73224 57.6878 9.81155C57.6041 9.89086 57.5116 9.94526 57.4104 9.97476C57.2566 10.0196 57.1282 10.0082 57.0251 9.94055C56.922 9.87294 56.8466 9.75756 56.7991 9.59442L56.5631 8.78435L56.3016 8.79799L56.2557 8.64047L56.7846 8.47112L57.0788 9.4809C57.1086 9.58309 57.1507 9.65269 57.2053 9.6897C57.2598 9.72671 57.333 9.73183 57.4249 9.70506C57.498 9.68376 57.5603 9.64782 57.6116 9.59725C57.6637 9.54547 57.7045 9.49341 57.734 9.44107C57.7635 9.38874 57.7777 9.3607 57.7766 9.35694L57.5279 8.50328L57.2664 8.51691L57.2205 8.35939L57.7494 8.19004L58.1268 9.48531L58.3883 9.47168L58.4346 9.6306Z" fill="black"/>
<path d="M56.6245 10.1732L55.827 10.4055L55.7807 10.2466L56.0046 10.1036L55.4928 8.34704L55.2313 8.36067L55.185 8.20175L55.7195 8.03076L56.2985 10.018L56.5782 10.0143L56.6245 10.1732Z" fill="black"/>
<path d="M54.8103 8.81136C54.8007 8.81007 54.7783 8.80999 54.7431 8.81111C54.7085 8.81102 54.6623 8.81481 54.6045 8.82249C54.5477 8.8299 54.4874 8.84289 54.4236 8.86146C54.2295 8.918 54.1006 9.03236 54.0368 9.20453C53.9737 9.37549 53.9808 9.59363 54.0581 9.85897C54.1308 10.1084 54.2416 10.279 54.3904 10.3709C54.5392 10.4629 54.7079 10.4814 54.8963 10.4265C54.9863 10.4002 55.069 10.3574 55.1442 10.2978C55.2194 10.2383 55.2816 10.1795 55.3308 10.1214C55.3809 10.063 55.4054 10.032 55.4043 10.0282L55.5742 10.1817C55.5758 10.1873 55.5497 10.227 55.4959 10.3006C55.4428 10.3731 55.3693 10.4474 55.2755 10.5235C55.1817 10.5996 55.0706 10.6564 54.9422 10.6938C54.6506 10.7788 54.3993 10.7594 54.1883 10.6358C53.9774 10.5121 53.8252 10.29 53.7317 9.96932C53.6681 9.75086 53.652 9.54906 53.6835 9.36391C53.7148 9.17783 53.7897 9.01969 53.9084 8.88949C54.0281 8.75902 54.1859 8.66524 54.3818 8.60815C54.4756 8.58083 54.5734 8.56403 54.6754 8.55773C54.7779 8.55022 54.8696 8.54894 54.9504 8.55389C55.0309 8.55789 55.0714 8.56084 55.072 8.56271L55.2005 9.05623L54.9839 9.11933L54.8103 8.81136Z" fill="black"/>
<path d="M52.1886 10.0405L52.0473 10.0374L52.0014 9.87991L52.6302 9.68147L52.6802 9.85305L52.4865 9.94762L52.4837 9.94844L52.3152 10.4751L52.8754 11.0153L52.8782 11.0144L53.1157 11.0231L53.162 11.182L52.7724 11.2955L52.1465 10.6814L51.8961 10.7543L52.0428 11.2578L52.2507 11.275L52.297 11.434L51.577 11.6438L51.5307 11.4848L51.7545 11.3418L51.2427 9.58525L50.9812 9.59888L50.9349 9.43996L51.4638 9.27061L51.833 10.5378L52.0777 10.4665L52.1886 10.0405Z" fill="black"/>
<path d="M50.7674 10.4729C50.7532 10.4729 50.7202 10.4765 50.6683 10.4834C50.6164 10.4904 50.5605 10.5026 50.5005 10.5201C50.3627 10.5603 50.2692 10.6358 50.2202 10.7467C50.1711 10.8577 50.1724 11.0017 50.224 11.1789C50.28 11.3711 50.3621 11.5064 50.4704 11.5847C50.5784 11.6621 50.7022 11.6804 50.8419 11.6397C50.9226 11.6162 50.9923 11.5817 51.0512 11.536C51.1102 11.4904 51.1565 11.4469 51.1902 11.4055C51.2237 11.3632 51.2398 11.3402 51.2388 11.3364L51.3904 11.4799C51.3915 11.4837 51.3679 11.5144 51.3197 11.5722C51.2723 11.6298 51.2106 11.6884 51.1344 11.7483C51.059 11.8069 50.9743 11.8498 50.8806 11.8772C50.6462 11.9454 50.4474 11.9281 50.2841 11.8251C50.1209 11.7221 50.0028 11.5455 49.9298 11.2951C49.885 11.1414 49.8756 10.9956 49.9016 10.8579C49.9285 10.7198 49.9885 10.6011 50.0817 10.5018C50.1745 10.4015 50.2964 10.3294 50.4473 10.2854C50.5242 10.263 50.6018 10.25 50.6802 10.2465C50.7582 10.2421 50.8229 10.2426 50.8743 10.248C50.9255 10.2524 50.9579 10.2556 50.9718 10.2577L51.0694 10.6504L50.8823 10.7049L50.7674 10.4729Z" fill="black"/>
<path d="M48.2054 11.0637C48.2188 11.0537 48.2529 11.031 48.3077 10.9957C48.3632 10.9592 48.4297 10.9205 48.5073 10.8796C48.5846 10.8377 48.6598 10.8062 48.733 10.7848C48.9074 10.734 49.0497 10.7302 49.1599 10.7734C49.2711 10.8163 49.3499 10.9174 49.3963 11.0768L49.652 11.9544L49.8994 11.9448L49.9457 12.1037L49.5026 12.2481L49.3835 12.0646C49.3397 12.1445 49.2836 12.2193 49.2155 12.289C49.1479 12.3575 49.0687 12.405 48.9778 12.4315C48.8418 12.4711 48.7249 12.4645 48.6271 12.4116C48.5291 12.3578 48.4601 12.2624 48.4202 12.1256C48.3738 11.9662 48.3978 11.8356 48.4922 11.7338C48.5864 11.6311 48.7399 11.5488 48.9527 11.4867L49.1834 11.4196L49.1162 11.1889C49.0916 11.1045 49.0494 11.0471 48.9897 11.0167C48.93 10.9863 48.8556 10.9841 48.7665 11.01C48.715 11.0251 48.6686 11.0421 48.6274 11.0613C48.5862 11.0804 48.5538 11.0969 48.5304 11.1109C48.508 11.1245 48.4942 11.1331 48.4891 11.1366L48.5114 11.3651L48.3244 11.4196L48.2054 11.0637ZM49.0368 11.6652C48.8942 11.7067 48.7976 11.7557 48.747 11.8122C48.6972 11.8684 48.6849 11.9396 48.71 12.0259C48.7292 12.0915 48.7632 12.1385 48.8122 12.167C48.8612 12.1954 48.9185 12.2001 48.9841 12.181C49.0479 12.1624 49.1033 12.1274 49.1504 12.0761C49.1974 12.0247 49.2353 11.973 49.2638 11.921C49.2924 11.8689 49.3062 11.841 49.3051 11.8372L49.2379 11.6066L49.0368 11.6652Z" fill="black"/>
<path d="M46.1838 13.0273L46.4117 12.8984L45.9585 11.3429L45.697 11.3566L45.6511 11.1991L46.4679 10.9443L46.5183 11.1173L46.2609 11.2548L46.4457 11.8891L47.4104 11.608L47.2257 10.9738L46.936 10.9956L46.8901 10.8381L47.7055 10.5837L47.7559 10.7567L47.528 10.8857L47.9812 12.4411L48.2427 12.4275L48.2931 12.6005L47.4732 12.8394L47.4228 12.6664L47.6788 12.5292L47.4776 11.8387L46.5129 12.1198L46.7141 12.8103L47.0051 12.7881L47.0555 12.961L46.2342 13.2003L46.1838 13.0273Z" fill="black"/>
</svg>
